<svg xmlns="http://www.w3.org/2000/svg" id="Camada_2" data-name="Camada 2" viewBox="0 0 81.33 182.79"><defs><style>      .cls-1 {        fill: #fff;      }      .cls-2 {        fill: #062b8e;      }      .cls-3 {        fill: #ff1a26;      }    </style></defs><g id="OBJECTS"><g><polygon class="cls-1" points="18.92 58 18.92 167.29 24.97 162.33 24.97 58 18.92 58"></polygon><polygon class="cls-1" points="68.85 58 68.85 172.56 74.9 177.52 74.9 58 68.85 58"></polygon><polygon class="cls-1" points="43.88 58 43.88 152.09 49.93 157.05 49.93 58 43.88 58"></polygon><polygon class="cls-1" points="6.43 58 6.43 177.52 12.48 172.56 12.48 58 6.43 58"></polygon><polygon class="cls-1" points="56.37 58 56.37 162.33 62.42 167.28 62.42 58 56.37 58"></polygon><polygon class="cls-1" points="31.4 58 31.4 157.05 37.45 152.1 37.45 58 31.4 58"></polygon><polygon class="cls-3" points="74.9 177.52 81.33 182.79 81.33 58 74.9 58 74.9 177.52"></polygon><polygon class="cls-3" points="62.42 58 62.42 167.28 68.85 172.56 68.85 58 62.42 58"></polygon><polygon class="cls-3" points="49.93 58 49.93 157.05 56.37 162.33 56.37 58 49.93 58"></polygon><polygon class="cls-3" points="37.45 58 37.45 152.1 40.67 149.46 43.88 152.09 43.88 58 37.45 58"></polygon><polygon class="cls-3" points="24.97 58 24.97 162.33 31.4 157.05 31.4 58 24.97 58"></polygon><polygon class="cls-3" points="12.48 58 12.48 172.56 18.92 167.29 18.92 58 12.48 58"></polygon><polygon class="cls-3" points="0 58 0 182.79 6.43 177.52 6.43 58 0 58"></polygon><polygon class="cls-2" points="62.42 52.86 62.42 52.49 62.32 52.56 62.42 52.86"></polygon><polygon class="cls-2" points="18.92 52.43 18.92 53.11 19.09 52.56 18.92 52.43"></polygon><polygon class="cls-2" points="18.92 40.8 18.92 41.48 19.09 40.93 18.92 40.8"></polygon><polygon class="cls-2" points="18.92 29.18 18.92 29.85 19.09 29.31 18.92 29.18"></polygon><polygon class="cls-2" points="62.42 41.23 62.42 40.86 62.32 40.93 62.42 41.23"></polygon><polygon class="cls-2" points="62.42 29.6 62.42 29.23 62.32 29.31 62.42 29.6"></polygon><polygon class="cls-2" points="18.92 17.55 18.92 18.23 19.09 17.68 18.92 17.55"></polygon><polygon class="cls-2" points="18.92 5.92 18.92 6.6 19.09 6.05 18.92 5.92"></polygon><polygon class="cls-2" points="62.42 17.98 62.42 17.61 62.32 17.68 62.42 17.98"></polygon><polygon class="cls-2" points="62.42 6.35 62.42 5.98 62.32 6.05 62.42 6.35"></polygon><polygon class="cls-2" points="0 .46 6.43 .46 6.43 3.72 6.92 2.22 7.68 4.59 10.14 4.59 8.15 6.05 8.91 8.42 6.92 6.96 6.43 7.31 6.43 15.35 6.92 13.85 7.68 16.21 10.14 16.21 8.15 17.68 8.91 20.05 6.92 18.58 6.43 18.94 6.43 26.98 6.92 25.47 7.68 27.84 10.14 27.84 8.15 29.31 8.91 31.67 6.92 30.21 6.43 30.56 6.43 38.61 6.92 37.1 7.68 39.47 10.14 39.47 8.15 40.93 8.91 43.3 6.92 41.84 6.43 42.19 6.43 50.23 6.92 48.73 7.68 51.1 10.14 51.1 8.15 52.56 8.91 54.93 6.92 53.46 6.43 53.82 6.43 58 12.48 58 12.48 48.62 11.63 49.25 12.39 46.88 10.4 45.42 12.48 45.42 12.48 37 11.63 37.62 12.39 35.26 10.4 33.79 12.48 33.79 12.48 25.37 11.63 26 12.39 23.63 10.4 22.17 12.48 22.17 12.48 13.74 11.63 14.37 12.39 12 10.4 10.54 12.48 10.54 12.48 .46 18.92 .46 18.92 4.59 19.56 4.59 20.32 2.22 21.08 4.59 23.55 4.59 21.56 6.05 22.32 8.42 20.32 6.96 18.92 7.99 18.92 16.21 19.56 16.21 20.32 13.85 21.08 16.21 23.55 16.21 21.56 17.68 22.32 20.05 20.32 18.58 18.92 19.62 18.92 27.84 19.56 27.84 20.32 25.47 21.08 27.84 23.55 27.84 21.56 29.31 22.32 31.67 20.32 30.21 18.92 31.24 18.92 39.47 19.56 39.47 20.32 37.1 21.08 39.47 23.55 39.47 21.56 40.93 22.32 43.3 20.32 41.84 18.92 42.87 18.92 51.1 19.56 51.1 20.32 48.73 21.08 51.1 23.55 51.1 21.56 52.56 22.32 54.93 20.32 53.46 18.92 54.5 18.92 58 24.97 58 24.97 46.14 23.98 45.42 24.97 45.42 24.97 34.51 23.98 33.79 24.97 33.79 24.97 22.89 23.98 22.17 24.97 22.17 24.97 11.26 23.98 10.54 24.97 10.54 24.97 .46 31.4 .46 31.4 4.59 33.33 4.59 34.09 2.22 34.85 4.59 37.32 4.59 35.33 6.05 36.09 8.42 34.09 6.96 32.1 8.42 32.86 6.05 31.4 4.98 31.4 16.21 33.33 16.21 34.09 13.85 34.85 16.21 37.32 16.21 35.33 17.68 36.09 20.05 34.09 18.58 32.1 20.05 32.86 17.68 31.4 16.6 31.4 27.84 33.33 27.84 34.09 25.47 34.85 27.84 37.32 27.84 35.33 29.31 36.09 31.67 34.09 30.21 32.1 31.67 32.86 29.31 31.4 28.23 31.4 39.47 33.33 39.47 34.09 37.1 34.85 39.47 37.32 39.47 35.33 40.93 36.09 43.3 34.09 41.84 32.1 43.3 32.86 40.93 31.4 39.86 31.4 51.1 33.33 51.1 34.09 48.73 34.85 51.1 37.32 51.1 35.33 52.56 36.09 54.93 34.09 53.46 32.1 54.93 32.86 52.56 31.4 51.49 31.4 58 37.45 58 37.45 .46 43.88 .46 43.88 10.54 44.02 10.54 43.88 10.64 43.88 22.17 44.02 22.17 43.88 22.27 43.88 33.79 44.02 33.79 43.88 33.89 43.88 45.42 44.02 45.42 43.88 45.52 43.88 58 49.93 58 49.93 51.74 48.82 52.56 49.58 54.93 47.59 53.46 45.6 54.93 46.36 52.56 44.37 51.1 46.83 51.1 47.59 48.73 48.35 51.1 49.93 51.1 49.93 40.12 48.82 40.93 49.58 43.3 47.59 41.84 45.6 43.3 46.36 40.93 44.37 39.47 46.83 39.47 47.59 37.1 48.35 39.47 49.93 39.47 49.93 28.49 48.82 29.31 49.58 31.67 47.59 30.21 45.6 31.67 46.36 29.31 44.37 27.84 46.83 27.84 47.59 25.47 48.35 27.84 49.93 27.84 49.93 16.86 48.82 17.68 49.58 20.05 47.59 18.58 45.6 20.05 46.36 17.68 44.37 16.21 46.83 16.21 47.59 13.85 48.35 16.21 49.93 16.21 49.93 5.24 48.82 6.05 49.58 8.42 47.59 6.96 45.6 8.42 46.36 6.05 44.37 4.59 46.83 4.59 47.59 2.22 48.35 4.59 49.93 4.59 49.93 .46 56.37 .46 56.37 10.54 57.61 10.54 56.37 11.45 56.37 14.34 56.38 14.37 56.37 14.36 56.37 22.17 57.61 22.17 56.37 23.08 56.37 25.96 56.38 26 56.37 25.99 56.37 33.79 57.61 33.79 56.37 34.71 56.37 37.59 56.38 37.62 56.37 37.62 56.37 45.42 57.61 45.42 56.37 46.33 56.37 49.22 56.38 49.25 56.37 49.24 56.37 58 62.42 58 62.42 54.44 61.09 53.46 59.1 54.93 59.86 52.56 57.86 51.1 60.33 51.1 61.09 48.73 61.85 51.1 62.42 51.1 62.42 42.81 61.09 41.84 59.1 43.3 59.86 40.93 57.86 39.47 60.33 39.47 61.09 37.1 61.85 39.47 62.42 39.47 62.42 31.18 61.09 30.21 59.1 31.67 59.86 29.31 57.86 27.84 60.33 27.84 61.09 25.47 61.85 27.84 62.42 27.84 62.42 19.56 61.09 18.58 59.1 20.05 59.86 17.68 57.86 16.21 60.33 16.21 61.09 13.85 61.85 16.21 62.42 16.21 62.42 7.93 61.09 6.96 59.1 8.42 59.86 6.05 57.86 4.59 60.33 4.59 61.09 2.22 61.85 4.59 62.42 4.59 62.42 .46 68.85 .46 68.85 10.54 71.2 10.54 69.2 12 69.97 14.37 68.85 13.55 68.85 22.17 71.2 22.17 69.2 23.63 69.97 26 68.85 25.18 68.85 33.79 71.2 33.79 69.2 35.26 69.97 37.62 68.85 36.8 68.85 45.42 71.2 45.42 69.2 46.88 69.97 49.25 68.85 48.43 68.85 58 74.9 58 74.9 53.49 74.86 53.46 72.87 54.93 73.63 52.56 71.63 51.1 74.1 51.1 74.86 48.73 74.9 48.86 74.9 41.87 74.86 41.84 72.87 43.3 73.63 40.93 71.63 39.47 74.1 39.47 74.86 37.1 74.9 37.23 74.9 30.24 74.86 30.21 72.87 31.67 73.63 29.31 71.63 27.84 74.1 27.84 74.86 25.47 74.9 25.6 74.9 18.61 74.86 18.58 72.87 20.05 73.63 17.68 71.63 16.21 74.1 16.21 74.86 13.85 74.9 13.98 74.9 6.99 74.86 6.96 72.87 8.42 73.63 6.05 71.63 4.59 74.1 4.59 74.86 2.22 74.9 2.35 74.9 .46 81.33 .46 81.33 0 0 0 0 .46"></polygon><polygon class="cls-2" points="74.9 2.35 75.62 4.59 78.08 4.59 76.09 6.05 76.85 8.42 74.9 6.99 74.9 13.98 75.62 16.21 78.08 16.21 76.09 17.68 76.85 20.05 74.9 18.61 74.9 25.6 75.62 27.84 78.08 27.84 76.09 29.31 76.85 31.67 74.9 30.24 74.9 37.23 75.62 39.47 78.08 39.47 76.09 40.93 76.85 43.3 74.9 41.87 74.9 48.86 75.62 51.1 78.08 51.1 76.09 52.56 76.85 54.93 74.9 53.49 74.9 58 81.33 58 81.33 .46 74.9 .46 74.9 2.35"></polygon><polygon class="cls-2" points="68.85 48.43 67.97 47.79 65.98 49.25 66.74 46.88 64.75 45.42 67.21 45.42 67.97 43.05 68.73 45.42 68.85 45.42 68.85 36.8 67.97 36.16 65.98 37.62 66.74 35.26 64.75 33.79 67.21 33.79 67.97 31.43 68.73 33.79 68.85 33.79 68.85 25.18 67.97 24.53 65.98 26 66.74 23.63 64.75 22.17 67.21 22.17 67.97 19.8 68.73 22.17 68.85 22.17 68.85 13.55 67.97 12.91 65.98 14.37 66.74 12 64.75 10.54 67.21 10.54 67.97 8.17 68.73 10.54 68.85 10.54 68.85 .46 62.42 .46 62.42 4.59 64.31 4.59 62.42 5.98 62.42 6.35 63.08 8.42 62.42 7.93 62.42 16.21 64.31 16.21 62.42 17.61 62.42 17.98 63.08 20.05 62.42 19.56 62.42 27.84 64.31 27.84 62.42 29.23 62.42 29.6 63.08 31.67 62.42 31.18 62.42 39.47 64.31 39.47 62.42 40.86 62.42 41.23 63.08 43.3 62.42 42.81 62.42 51.1 64.31 51.1 62.42 52.49 62.42 52.86 63.08 54.93 62.42 54.44 62.42 58 68.85 58 68.85 48.43"></polygon><polygon class="cls-2" points="56.37 49.24 54.38 47.79 52.39 49.25 53.15 46.88 51.16 45.42 53.62 45.42 54.38 43.05 55.15 45.42 56.37 45.42 56.37 37.62 54.38 36.16 52.39 37.62 53.15 35.26 51.16 33.79 53.62 33.79 54.38 31.43 55.15 33.79 56.37 33.79 56.37 25.99 54.38 24.53 52.39 26 53.15 23.63 51.16 22.17 53.62 22.17 54.38 19.8 55.15 22.17 56.37 22.17 56.37 14.36 54.38 12.91 52.39 14.37 53.15 12 51.16 10.54 53.62 10.54 54.38 8.17 55.15 10.54 56.37 10.54 56.37 .46 49.93 .46 49.93 4.59 50.82 4.59 49.93 5.24 49.93 16.21 50.82 16.21 49.93 16.86 49.93 27.84 50.82 27.84 49.93 28.49 49.93 39.47 50.82 39.47 49.93 40.12 49.93 51.1 50.82 51.1 49.93 51.74 49.93 58 56.37 58 56.37 49.24"></polygon><polygon class="cls-2" points="56.37 14.34 56.37 11.45 55.62 12 56.37 14.34"></polygon><polygon class="cls-2" points="56.37 25.96 56.37 23.08 55.62 23.63 56.37 25.96"></polygon><polygon class="cls-2" points="56.37 37.59 56.37 34.71 55.62 35.26 56.37 37.59"></polygon><polygon class="cls-2" points="56.37 49.22 56.37 46.33 55.62 46.88 56.37 49.22"></polygon><polygon class="cls-2" points="43.88 45.52 42.03 46.88 42.79 49.25 40.8 47.79 38.8 49.25 39.57 46.88 37.57 45.42 40.04 45.42 40.8 43.05 41.56 45.42 43.88 45.42 43.88 33.89 42.03 35.26 42.79 37.62 40.8 36.16 38.8 37.62 39.57 35.26 37.57 33.79 40.04 33.79 40.8 31.43 41.56 33.79 43.88 33.79 43.88 22.27 42.03 23.63 42.79 26 40.8 24.53 38.8 26 39.57 23.63 37.57 22.17 40.04 22.17 40.8 19.8 41.56 22.17 43.88 22.17 43.88 10.64 42.03 12 42.79 14.37 40.8 12.91 38.8 14.37 39.57 12 37.57 10.54 40.04 10.54 40.8 8.17 41.56 10.54 43.88 10.54 43.88 .46 37.45 .46 37.45 58 43.88 58 43.88 45.52"></polygon><polygon class="cls-2" points="31.4 51.49 30.87 51.1 31.4 51.1 31.4 39.86 30.87 39.47 31.4 39.47 31.4 28.23 30.87 27.84 31.4 27.84 31.4 16.6 30.87 16.21 31.4 16.21 31.4 4.98 30.87 4.59 31.4 4.59 31.4 .46 24.97 .46 24.97 10.54 26.45 10.54 27.21 8.17 27.97 10.54 30.43 10.54 28.44 12 29.2 14.37 27.21 12.91 25.22 14.37 25.98 12 24.97 11.26 24.97 22.17 26.45 22.17 27.21 19.8 27.97 22.17 30.43 22.17 28.44 23.63 29.2 26 27.21 24.53 25.22 26 25.98 23.63 24.97 22.89 24.97 33.79 26.45 33.79 27.21 31.43 27.97 33.79 30.43 33.79 28.44 35.26 29.2 37.62 27.21 36.16 25.22 37.62 25.98 35.26 24.97 34.51 24.97 45.42 26.45 45.42 27.21 43.05 27.97 45.42 30.43 45.42 28.44 46.88 29.2 49.25 27.21 47.79 25.22 49.25 25.98 46.88 24.97 46.14 24.97 58 31.4 58 31.4 51.49"></polygon><polygon class="cls-2" points="18.92 54.5 18.33 54.93 18.92 53.11 18.92 52.43 17.1 51.1 18.92 51.1 18.92 42.87 18.33 43.3 18.92 41.48 18.92 40.8 17.1 39.47 18.92 39.47 18.92 31.24 18.33 31.67 18.92 29.85 18.92 29.18 17.1 27.84 18.92 27.84 18.92 19.62 18.33 20.05 18.92 18.23 18.92 17.55 17.1 16.21 18.92 16.21 18.92 7.99 18.33 8.42 18.92 6.6 18.92 5.92 17.1 4.59 18.92 4.59 18.92 .46 12.48 .46 12.48 10.54 12.86 10.54 13.62 8.17 14.38 10.54 16.84 10.54 14.85 12 15.61 14.37 13.62 12.91 12.48 13.74 12.48 22.17 12.86 22.17 13.62 19.8 14.38 22.17 16.84 22.17 14.85 23.63 15.61 26 13.62 24.53 12.48 25.37 12.48 33.79 12.86 33.79 13.62 31.43 14.38 33.79 16.84 33.79 14.85 35.26 15.61 37.62 13.62 36.16 12.48 37 12.48 45.42 12.86 45.42 13.62 43.05 14.38 45.42 16.84 45.42 14.85 46.88 15.61 49.25 13.62 47.79 12.48 48.62 12.48 58 18.92 58 18.92 54.5"></polygon><polygon class="cls-2" points="6.43 53.82 4.92 54.93 5.69 52.56 3.69 51.1 6.16 51.1 6.43 50.23 6.43 42.19 4.92 43.3 5.69 40.93 3.69 39.47 6.16 39.47 6.43 38.61 6.43 30.56 4.92 31.67 5.69 29.31 3.69 27.84 6.16 27.84 6.43 26.98 6.43 18.94 4.92 20.05 5.69 17.68 3.69 16.21 6.16 16.21 6.43 15.35 6.43 7.31 4.92 8.42 5.69 6.05 3.69 4.59 6.16 4.59 6.43 3.72 6.43 .46 0 .46 0 58 6.43 58 6.43 53.82"></polygon><polygon class="cls-1" points="6.92 6.96 8.91 8.42 8.15 6.05 10.14 4.59 7.68 4.59 6.92 2.22 6.43 3.72 6.43 7.31 6.92 6.96"></polygon><polygon class="cls-1" points="3.69 4.59 5.69 6.05 4.92 8.42 6.43 7.31 6.43 3.72 6.16 4.59 3.69 4.59"></polygon><polygon class="cls-1" points="10.4 10.54 12.39 12 11.63 14.37 12.48 13.74 12.48 10.54 10.4 10.54"></polygon><polygon class="cls-1" points="15.61 14.37 14.85 12 16.84 10.54 14.38 10.54 13.62 8.17 12.86 10.54 12.48 10.54 12.48 13.74 13.62 12.91 15.61 14.37"></polygon><polygon class="cls-1" points="10.4 22.17 12.39 23.63 11.63 26 12.48 25.37 12.48 22.17 10.4 22.17"></polygon><polygon class="cls-1" points="15.61 26 14.85 23.63 16.84 22.17 14.38 22.17 13.62 19.8 12.86 22.17 12.48 22.17 12.48 25.37 13.62 24.53 15.61 26"></polygon><polygon class="cls-1" points="10.4 33.79 12.39 35.26 11.63 37.62 12.48 37 12.48 33.79 10.4 33.79"></polygon><polygon class="cls-1" points="15.61 37.62 14.85 35.26 16.84 33.79 14.38 33.79 13.62 31.43 12.86 33.79 12.48 33.79 12.48 37 13.62 36.16 15.61 37.62"></polygon><polygon class="cls-1" points="10.4 45.42 12.39 46.88 11.63 49.25 12.48 48.62 12.48 45.42 10.4 45.42"></polygon><polygon class="cls-1" points="15.61 49.25 14.85 46.88 16.84 45.42 14.38 45.42 13.62 43.05 12.86 45.42 12.48 45.42 12.48 48.62 13.62 47.79 15.61 49.25"></polygon><polygon class="cls-1" points="23.98 10.54 24.97 11.26 24.97 10.54 23.98 10.54"></polygon><polygon class="cls-1" points="25.22 14.37 27.21 12.91 29.2 14.37 28.44 12 30.43 10.54 27.97 10.54 27.21 8.17 26.45 10.54 24.97 10.54 24.97 11.26 25.98 12 25.22 14.37"></polygon><polygon class="cls-1" points="23.98 22.17 24.97 22.89 24.97 22.17 23.98 22.17"></polygon><polygon class="cls-1" points="25.22 26 27.21 24.53 29.2 26 28.44 23.63 30.43 22.17 27.97 22.17 27.21 19.8 26.45 22.17 24.97 22.17 24.97 22.89 25.98 23.63 25.22 26"></polygon><polygon class="cls-1" points="23.98 33.79 24.97 34.51 24.97 33.79 23.98 33.79"></polygon><polygon class="cls-1" points="25.22 37.62 27.21 36.16 29.2 37.62 28.44 35.26 30.43 33.79 27.97 33.79 27.21 31.43 26.45 33.79 24.97 33.79 24.97 34.51 25.98 35.26 25.22 37.62"></polygon><polygon class="cls-1" points="23.98 45.42 24.97 46.14 24.97 45.42 23.98 45.42"></polygon><polygon class="cls-1" points="25.22 49.25 27.21 47.79 29.2 49.25 28.44 46.88 30.43 45.42 27.97 45.42 27.21 43.05 26.45 45.42 24.97 45.42 24.97 46.14 25.98 46.88 25.22 49.25"></polygon><polygon class="cls-1" points="44.02 10.54 43.88 10.54 43.88 10.64 44.02 10.54"></polygon><polygon class="cls-1" points="40.8 8.17 40.04 10.54 37.57 10.54 39.57 12 38.8 14.37 40.8 12.91 42.79 14.37 42.03 12 43.88 10.64 43.88 10.54 41.56 10.54 40.8 8.17"></polygon><polygon class="cls-1" points="44.02 22.17 43.88 22.17 43.88 22.27 44.02 22.17"></polygon><polygon class="cls-1" points="40.8 19.8 40.04 22.17 37.57 22.17 39.57 23.63 38.8 26 40.8 24.53 42.79 26 42.03 23.63 43.88 22.27 43.88 22.17 41.56 22.17 40.8 19.8"></polygon><polygon class="cls-1" points="44.02 33.79 43.88 33.79 43.88 33.89 44.02 33.79"></polygon><polygon class="cls-1" points="40.8 31.43 40.04 33.79 37.57 33.79 39.57 35.26 38.8 37.62 40.8 36.16 42.79 37.62 42.03 35.26 43.88 33.89 43.88 33.79 41.56 33.79 40.8 31.43"></polygon><polygon class="cls-1" points="44.02 45.42 43.88 45.42 43.88 45.52 44.02 45.42"></polygon><polygon class="cls-1" points="40.8 43.05 40.04 45.42 37.57 45.42 39.57 46.88 38.8 49.25 40.8 47.79 42.79 49.25 42.03 46.88 43.88 45.52 43.88 45.42 41.56 45.42 40.8 43.05"></polygon><polygon class="cls-1" points="57.61 10.54 56.37 10.54 56.37 11.45 57.61 10.54"></polygon><polygon class="cls-1" points="56.38 14.37 56.37 14.34 56.37 14.36 56.38 14.37"></polygon><polygon class="cls-1" points="54.38 8.17 53.62 10.54 51.16 10.54 53.15 12 52.39 14.37 54.38 12.91 56.37 14.36 56.37 14.34 55.62 12 56.37 11.45 56.37 10.54 55.15 10.54 54.38 8.17"></polygon><polygon class="cls-1" points="57.61 22.17 56.37 22.17 56.37 23.08 57.61 22.17"></polygon><polygon class="cls-1" points="56.38 26 56.37 25.96 56.37 25.99 56.38 26"></polygon><polygon class="cls-1" points="54.38 19.8 53.62 22.17 51.16 22.17 53.15 23.63 52.39 26 54.38 24.53 56.37 25.99 56.37 25.96 55.62 23.63 56.37 23.08 56.37 22.17 55.15 22.17 54.38 19.8"></polygon><polygon class="cls-1" points="57.61 33.79 56.37 33.79 56.37 34.71 57.61 33.79"></polygon><polygon class="cls-1" points="56.38 37.62 56.37 37.59 56.37 37.62 56.38 37.62"></polygon><polygon class="cls-1" points="54.38 31.43 53.62 33.79 51.16 33.79 53.15 35.26 52.39 37.62 54.38 36.16 56.37 37.62 56.37 37.59 55.62 35.26 56.37 34.71 56.37 33.79 55.15 33.79 54.38 31.43"></polygon><polygon class="cls-1" points="57.61 45.42 56.37 45.42 56.37 46.33 57.61 45.42"></polygon><polygon class="cls-1" points="56.38 49.25 56.37 49.22 56.37 49.24 56.38 49.25"></polygon><polygon class="cls-1" points="54.38 43.05 53.62 45.42 51.16 45.42 53.15 46.88 52.39 49.25 54.38 47.79 56.37 49.24 56.37 49.22 55.62 46.88 56.37 46.33 56.37 45.42 55.15 45.42 54.38 43.05"></polygon><polygon class="cls-1" points="69.97 14.37 69.2 12 71.2 10.54 68.85 10.54 68.85 13.55 69.97 14.37"></polygon><polygon class="cls-1" points="67.97 8.17 67.21 10.54 64.75 10.54 66.74 12 65.98 14.37 67.97 12.91 68.85 13.55 68.85 10.54 68.73 10.54 67.97 8.17"></polygon><polygon class="cls-1" points="69.97 26 69.2 23.63 71.2 22.17 68.85 22.17 68.85 25.18 69.97 26"></polygon><polygon class="cls-1" points="67.97 19.8 67.21 22.17 64.75 22.17 66.74 23.63 65.98 26 67.97 24.53 68.85 25.18 68.85 22.17 68.73 22.17 67.97 19.8"></polygon><polygon class="cls-1" points="69.97 37.62 69.2 35.26 71.2 33.79 68.85 33.79 68.85 36.8 69.97 37.62"></polygon><polygon class="cls-1" points="67.97 31.43 67.21 33.79 64.75 33.79 66.74 35.26 65.98 37.62 67.97 36.16 68.85 36.8 68.85 33.79 68.73 33.79 67.97 31.43"></polygon><polygon class="cls-1" points="69.97 49.25 69.2 46.88 71.2 45.42 68.85 45.42 68.85 48.43 69.97 49.25"></polygon><polygon class="cls-1" points="67.97 43.05 67.21 45.42 64.75 45.42 66.74 46.88 65.98 49.25 67.97 47.79 68.85 48.43 68.85 45.42 68.73 45.42 67.97 43.05"></polygon><polygon class="cls-1" points="6.92 18.58 8.91 20.05 8.15 17.68 10.14 16.21 7.68 16.21 6.92 13.85 6.43 15.35 6.43 18.94 6.92 18.58"></polygon><polygon class="cls-1" points="3.69 16.21 5.69 17.68 4.92 20.05 6.43 18.94 6.43 15.35 6.16 16.21 3.69 16.21"></polygon><polygon class="cls-1" points="6.92 30.21 8.91 31.67 8.15 29.31 10.14 27.84 7.68 27.84 6.92 25.47 6.43 26.98 6.43 30.56 6.92 30.21"></polygon><polygon class="cls-1" points="3.69 27.84 5.69 29.31 4.92 31.67 6.43 30.56 6.43 26.98 6.16 27.84 3.69 27.84"></polygon><polygon class="cls-1" points="6.92 41.84 8.91 43.3 8.15 40.93 10.14 39.47 7.68 39.47 6.92 37.1 6.43 38.61 6.43 42.19 6.92 41.84"></polygon><polygon class="cls-1" points="3.69 39.47 5.69 40.93 4.92 43.3 6.43 42.19 6.43 38.61 6.16 39.47 3.69 39.47"></polygon><polygon class="cls-1" points="6.92 53.46 8.91 54.93 8.15 52.56 10.14 51.1 7.68 51.1 6.92 48.73 6.43 50.23 6.43 53.82 6.92 53.46"></polygon><polygon class="cls-1" points="3.69 51.1 5.69 52.56 4.92 54.93 6.43 53.82 6.43 50.23 6.16 51.1 3.69 51.1"></polygon><polygon class="cls-1" points="19.09 6.05 18.92 6.6 18.92 7.99 20.32 6.96 22.32 8.42 21.56 6.05 23.55 4.59 21.08 4.59 20.32 2.22 19.56 4.59 18.92 4.59 18.92 5.92 19.09 6.05"></polygon><polygon class="cls-1" points="18.33 8.42 18.92 7.99 18.92 6.6 18.33 8.42"></polygon><polygon class="cls-1" points="18.92 5.92 18.92 4.59 17.1 4.59 18.92 5.92"></polygon><polygon class="cls-1" points="19.09 17.68 18.92 18.23 18.92 19.62 20.32 18.58 22.32 20.05 21.56 17.68 23.55 16.21 21.08 16.21 20.32 13.85 19.56 16.21 18.92 16.21 18.92 17.55 19.09 17.68"></polygon><polygon class="cls-1" points="18.33 20.05 18.92 19.62 18.92 18.23 18.33 20.05"></polygon><polygon class="cls-1" points="18.92 17.55 18.92 16.21 17.1 16.21 18.92 17.55"></polygon><polygon class="cls-1" points="19.09 29.31 18.92 29.85 18.92 31.24 20.32 30.21 22.32 31.67 21.56 29.31 23.55 27.84 21.08 27.84 20.32 25.47 19.56 27.84 18.92 27.84 18.92 29.18 19.09 29.31"></polygon><polygon class="cls-1" points="18.33 31.67 18.92 31.24 18.92 29.85 18.33 31.67"></polygon><polygon class="cls-1" points="18.92 29.18 18.92 27.84 17.1 27.84 18.92 29.18"></polygon><polygon class="cls-1" points="19.09 40.93 18.92 41.48 18.92 42.87 20.32 41.84 22.32 43.3 21.56 40.93 23.55 39.47 21.08 39.47 20.32 37.1 19.56 39.47 18.92 39.47 18.92 40.8 19.09 40.93"></polygon><polygon class="cls-1" points="18.33 43.3 18.92 42.87 18.92 41.48 18.33 43.3"></polygon><polygon class="cls-1" points="18.92 40.8 18.92 39.47 17.1 39.47 18.92 40.8"></polygon><polygon class="cls-1" points="19.09 52.56 18.92 53.11 18.92 54.5 20.32 53.46 22.32 54.93 21.56 52.56 23.55 51.1 21.08 51.1 20.32 48.73 19.56 51.1 18.92 51.1 18.92 52.43 19.09 52.56"></polygon><polygon class="cls-1" points="18.33 54.93 18.92 54.5 18.92 53.11 18.33 54.93"></polygon><polygon class="cls-1" points="18.92 52.43 18.92 51.1 17.1 51.1 18.92 52.43"></polygon><polygon class="cls-1" points="32.86 6.05 32.1 8.42 34.09 6.96 36.09 8.42 35.33 6.05 37.32 4.59 34.85 4.59 34.09 2.22 33.33 4.59 31.4 4.59 31.4 4.98 32.86 6.05"></polygon><polygon class="cls-1" points="31.4 4.98 31.4 4.59 30.87 4.59 31.4 4.98"></polygon><polygon class="cls-1" points="32.86 17.68 32.1 20.05 34.09 18.58 36.09 20.05 35.33 17.68 37.32 16.21 34.85 16.21 34.09 13.85 33.33 16.21 31.4 16.21 31.4 16.6 32.86 17.68"></polygon><polygon class="cls-1" points="31.4 16.6 31.4 16.21 30.87 16.21 31.4 16.6"></polygon><polygon class="cls-1" points="32.86 29.31 32.1 31.67 34.09 30.21 36.09 31.67 35.33 29.31 37.32 27.84 34.85 27.84 34.09 25.47 33.33 27.84 31.4 27.84 31.4 28.23 32.86 29.31"></polygon><polygon class="cls-1" points="31.4 28.23 31.4 27.84 30.87 27.84 31.4 28.23"></polygon><polygon class="cls-1" points="32.86 40.93 32.1 43.3 34.09 41.84 36.09 43.3 35.33 40.93 37.32 39.47 34.85 39.47 34.09 37.1 33.33 39.47 31.4 39.47 31.4 39.86 32.86 40.93"></polygon><polygon class="cls-1" points="31.4 39.86 31.4 39.47 30.87 39.47 31.4 39.86"></polygon><polygon class="cls-1" points="32.86 52.56 32.1 54.93 34.09 53.46 36.09 54.93 35.33 52.56 37.32 51.1 34.85 51.1 34.09 48.73 33.33 51.1 31.4 51.1 31.4 51.49 32.86 52.56"></polygon><polygon class="cls-1" points="31.4 51.49 31.4 51.1 30.87 51.1 31.4 51.49"></polygon><polygon class="cls-1" points="48.35 4.59 47.59 2.22 46.83 4.59 44.37 4.59 46.36 6.05 45.6 8.42 47.59 6.96 49.58 8.42 48.82 6.05 49.93 5.24 49.93 4.59 48.35 4.59"></polygon><polygon class="cls-1" points="49.93 4.59 49.93 5.24 50.82 4.59 49.93 4.59"></polygon><polygon class="cls-1" points="48.35 16.21 47.59 13.85 46.83 16.21 44.37 16.21 46.36 17.68 45.6 20.05 47.59 18.58 49.58 20.05 48.82 17.68 49.93 16.86 49.93 16.21 48.35 16.21"></polygon><polygon class="cls-1" points="49.93 16.21 49.93 16.86 50.82 16.21 49.93 16.21"></polygon><polygon class="cls-1" points="48.35 27.84 47.59 25.47 46.83 27.84 44.37 27.84 46.36 29.31 45.6 31.67 47.59 30.21 49.58 31.67 48.82 29.31 49.93 28.49 49.93 27.84 48.35 27.84"></polygon><polygon class="cls-1" points="49.93 27.84 49.93 28.49 50.82 27.84 49.93 27.84"></polygon><polygon class="cls-1" points="48.35 39.47 47.59 37.1 46.83 39.47 44.37 39.47 46.36 40.93 45.6 43.3 47.59 41.84 49.58 43.3 48.82 40.93 49.93 40.12 49.93 39.47 48.35 39.47"></polygon><polygon class="cls-1" points="49.93 39.47 49.93 40.12 50.82 39.47 49.93 39.47"></polygon><polygon class="cls-1" points="48.35 51.1 47.59 48.73 46.83 51.1 44.37 51.1 46.36 52.56 45.6 54.93 47.59 53.46 49.58 54.93 48.82 52.56 49.93 51.74 49.93 51.1 48.35 51.1"></polygon><polygon class="cls-1" points="49.93 51.1 49.93 51.74 50.82 51.1 49.93 51.1"></polygon><polygon class="cls-1" points="62.32 6.05 62.42 5.98 62.42 4.59 61.85 4.59 61.09 2.22 60.33 4.59 57.86 4.59 59.86 6.05 59.1 8.42 61.09 6.96 62.42 7.93 62.42 6.35 62.32 6.05"></polygon><polygon class="cls-1" points="62.42 6.35 62.42 7.93 63.08 8.42 62.42 6.35"></polygon><polygon class="cls-1" points="64.31 4.59 62.42 4.59 62.42 5.98 64.31 4.59"></polygon><polygon class="cls-1" points="62.32 17.68 62.42 17.61 62.42 16.21 61.85 16.21 61.09 13.85 60.33 16.21 57.86 16.21 59.86 17.68 59.1 20.05 61.09 18.58 62.42 19.56 62.42 17.98 62.32 17.68"></polygon><polygon class="cls-1" points="64.31 16.21 62.42 16.21 62.42 17.61 64.31 16.21"></polygon><polygon class="cls-1" points="62.42 17.98 62.42 19.56 63.08 20.05 62.42 17.98"></polygon><polygon class="cls-1" points="62.32 29.31 62.42 29.23 62.42 27.84 61.85 27.84 61.09 25.47 60.33 27.84 57.86 27.84 59.86 29.31 59.1 31.67 61.09 30.21 62.42 31.18 62.42 29.6 62.32 29.31"></polygon><polygon class="cls-1" points="62.42 29.6 62.42 31.18 63.08 31.67 62.42 29.6"></polygon><polygon class="cls-1" points="64.31 27.84 62.42 27.84 62.42 29.23 64.31 27.84"></polygon><polygon class="cls-1" points="62.32 40.93 62.42 40.86 62.42 39.47 61.85 39.47 61.09 37.1 60.33 39.47 57.86 39.47 59.86 40.93 59.1 43.3 61.09 41.84 62.42 42.81 62.42 41.23 62.32 40.93"></polygon><polygon class="cls-1" points="62.42 41.23 62.42 42.81 63.08 43.3 62.42 41.23"></polygon><polygon class="cls-1" points="64.31 39.47 62.42 39.47 62.42 40.86 64.31 39.47"></polygon><polygon class="cls-1" points="62.32 52.56 62.42 52.49 62.42 51.1 61.85 51.1 61.09 48.73 60.33 51.1 57.86 51.1 59.86 52.56 59.1 54.93 61.09 53.46 62.42 54.44 62.42 52.86 62.32 52.56"></polygon><polygon class="cls-1" points="64.31 51.1 62.42 51.1 62.42 52.49 64.31 51.1"></polygon><polygon class="cls-1" points="62.42 52.86 62.42 54.44 63.08 54.93 62.42 52.86"></polygon><polygon class="cls-1" points="74.86 2.22 74.1 4.59 71.63 4.59 73.63 6.05 72.87 8.42 74.86 6.96 74.9 6.99 74.9 2.35 74.86 2.22"></polygon><polygon class="cls-1" points="76.09 6.05 78.08 4.59 75.62 4.59 74.9 2.35 74.9 6.99 76.85 8.42 76.09 6.05"></polygon><polygon class="cls-1" points="74.86 13.85 74.1 16.21 71.63 16.21 73.63 17.68 72.87 20.05 74.86 18.58 74.9 18.61 74.9 13.98 74.86 13.85"></polygon><polygon class="cls-1" points="76.09 17.68 78.08 16.21 75.62 16.21 74.9 13.98 74.9 18.61 76.85 20.05 76.09 17.68"></polygon><polygon class="cls-1" points="74.86 25.47 74.1 27.84 71.63 27.84 73.63 29.31 72.87 31.67 74.86 30.21 74.9 30.24 74.9 25.6 74.86 25.47"></polygon><polygon class="cls-1" points="76.09 29.31 78.08 27.84 75.62 27.84 74.9 25.6 74.9 30.24 76.85 31.67 76.09 29.31"></polygon><polygon class="cls-1" points="74.86 37.1 74.1 39.47 71.63 39.47 73.63 40.93 72.87 43.3 74.86 41.84 74.9 41.87 74.9 37.23 74.86 37.1"></polygon><polygon class="cls-1" points="76.09 40.93 78.08 39.47 75.62 39.47 74.9 37.23 74.9 41.87 76.85 43.3 76.09 40.93"></polygon><polygon class="cls-1" points="74.86 48.73 74.1 51.1 71.63 51.1 73.63 52.56 72.87 54.93 74.86 53.46 74.9 53.49 74.9 48.86 74.86 48.73"></polygon><polygon class="cls-1" points="76.09 52.56 78.08 51.1 75.62 51.1 74.9 48.86 74.9 53.49 76.85 54.93 76.09 52.56"></polygon></g></g></svg>