<svg xmlns="http://www.w3.org/2000/svg" xmlns:xlink="http://www.w3.org/1999/xlink" id="Camada_2" data-name="Camada 2" viewBox="0 0 228.36 72.77"><defs><style>      .cls-1 {        fill: url(#linear-gradient-2);      }      .cls-2, .cls-3 {        fill: #fff;      }      .cls-3, .cls-4, .cls-5, .cls-6, .cls-7, .cls-8, .cls-9, .cls-10, .cls-11, .cls-12 {        fill-rule: evenodd;      }      .cls-13 {        fill: url(#linear-gradient-6);      }      .cls-4 {        fill: url(#linear-gradient-9);      }      .cls-5 {        fill: #ec008c;      }      .cls-6 {        fill: #231f20;      }      .cls-14 {        fill: url(#Gradiente_sem_nome_2);      }      .cls-7 {        fill: url(#_Áåçûìÿííûé_ãðàäèåíò_669);      }      .cls-8 {        fill: url(#linear-gradient-10);      }      .cls-9 {        fill: url(#linear-gradient-11);      }      .cls-10 {        fill: #eceff0;      }      .cls-15 {        fill: #171717;      }      .cls-16 {        fill: url(#linear-gradient-5);      }      .cls-11 {        fill: #dec394;      }      .cls-17 {        fill: url(#linear-gradient-7);      }      .cls-12 {        fill: url(#_Áåçûìÿííûé_ãðàäèåíò_4);      }      .cls-18 {        fill: url(#linear-gradient-3);      }      .cls-19 {        fill: url(#linear-gradient);      }      .cls-20 {        fill: url(#linear-gradient-4);      }      .cls-21 {        fill: url(#linear-gradient-8);      }    </style><linearGradient id="linear-gradient" x1="81.55" y1="26.63" x2="205.56" y2="26.63" gradientUnits="userSpaceOnUse"><stop offset=".02" stop-color="#fee8a8"></stop><stop offset=".49" stop-color="#c06a29"></stop><stop offset=".7" stop-color="#fee8a8"></stop><stop offset=".87" stop-color="#c06a29"></stop></linearGradient><linearGradient id="linear-gradient-2" x1="205.56" y1="26.64" x2="209.13" y2="26.64" xlink:href="#linear-gradient"></linearGradient><linearGradient id="linear-gradient-3" y1="26.64" x2="209.13" y2="26.64" xlink:href="#linear-gradient"></linearGradient><linearGradient id="linear-gradient-4" y1="26.64" x2="209.13" y2="26.64" xlink:href="#linear-gradient"></linearGradient><linearGradient id="_&#xC1;&#xE5;&#xE7;&#xFB;&#xEC;&#xFF;&#xED;&#xED;&#xFB;&#xE9;_&#xE3;&#xF0;&#xE0;&#xE4;&#xE8;&#xE5;&#xED;&#xF2;_4" data-name="&#xC1;&#xE5;&#xE7;&#xFB;&#xEC;&#xFF;&#xED;&#xED;&#xFB;&#xE9; &#xE3;&#xF0;&#xE0;&#xE4;&#xE8;&#xE5;&#xED;&#xF2; 4" x1="14.57" y1="41.85" x2="74.44" y2="41.85" gradientUnits="userSpaceOnUse"><stop offset="0" stop-color="#ffd064"></stop><stop offset=".02" stop-color="#ffcf63"></stop><stop offset=".22" stop-color="#ffcd61"></stop><stop offset=".28" stop-color="#ffd369"></stop><stop offset=".37" stop-color="#ffe57f"></stop><stop offset=".43" stop-color="#fff593"></stop><stop offset=".58" stop-color="#fdd873"></stop><stop offset=".75" stop-color="#fbbd55"></stop><stop offset=".9" stop-color="#faac43"></stop><stop offset="1" stop-color="#faa73d"></stop></linearGradient><linearGradient id="_&#xC1;&#xE5;&#xE7;&#xFB;&#xEC;&#xFF;&#xED;&#xED;&#xFB;&#xE9;_&#xE3;&#xF0;&#xE0;&#xE4;&#xE8;&#xE5;&#xED;&#xF2;_669" data-name="&#xC1;&#xE5;&#xE7;&#xFB;&#xEC;&#xFF;&#xED;&#xED;&#xFB;&#xE9; &#xE3;&#xF0;&#xE0;&#xE4;&#xE8;&#xE5;&#xED;&#xF2; 669" x1="14.57" y1="41.85" x2="74.44" y2="41.85" gradientUnits="userSpaceOnUse"><stop offset="0" stop-color="#b76327"></stop><stop offset=".1" stop-color="#ba6628"></stop><stop offset=".19" stop-color="#c3712d"></stop><stop offset=".27" stop-color="#d48335"></stop><stop offset=".35" stop-color="#ea9c40"></stop><stop offset=".4" stop-color="#fbae49"></stop><stop offset=".45" stop-color="#fab451"></stop><stop offset=".52" stop-color="#fac767"></stop><stop offset=".6" stop-color="#fae68a"></stop><stop offset=".63" stop-color="#faf399"></stop><stop offset=".66" stop-color="#f9e98c"></stop><stop offset=".77" stop-color="#f9c963"></stop><stop offset=".86" stop-color="#f9b244"></stop><stop offset=".94" stop-color="#f9a432"></stop><stop offset="1" stop-color="#f9a02c"></stop></linearGradient><linearGradient id="Gradiente_sem_nome_2" data-name="Gradiente sem nome 2" x1="52.33" y1="26.52" x2="82.46" y2="26.52" gradientUnits="userSpaceOnUse"><stop offset="0" stop-color="#faaa42"></stop><stop offset=".03" stop-color="#faac46"></stop><stop offset=".12" stop-color="#fab04d"></stop><stop offset=".32" stop-color="#fbb250"></stop><stop offset=".33" stop-color="#fbb858"></stop><stop offset=".36" stop-color="#fbcb6e"></stop><stop offset=".39" stop-color="#fbe991"></stop><stop offset=".4" stop-color="#fbf49f"></stop><stop offset=".42" stop-color="#fae88f"></stop><stop offset=".47" stop-color="#fad06c"></stop><stop offset=".52" stop-color="#fabc51"></stop><stop offset=".57" stop-color="#faae3e"></stop><stop offset=".62" stop-color="#faa632"></stop><stop offset=".67" stop-color="#faa42f"></stop><stop offset=".69" stop-color="#faaa38"></stop><stop offset=".79" stop-color="#fac961"></stop><stop offset=".87" stop-color="#fae080"></stop><stop offset=".95" stop-color="#faee92"></stop><stop offset="1" stop-color="#faf399"></stop></linearGradient><linearGradient id="linear-gradient-5" x1="146.7" y1="46.35" x2="270.71" y2="46.35" gradientTransform="translate(375.06) rotate(-180) scale(1 -1)" xlink:href="#linear-gradient"></linearGradient><linearGradient id="linear-gradient-6" x1="270.71" y1="46.36" x2="274.28" y2="46.36" gradientTransform="translate(375.06) rotate(-180) scale(1 -1)" xlink:href="#linear-gradient"></linearGradient><linearGradient id="linear-gradient-7" x1="138.34" y1="46.86" x2="265.93" y2="46.86" gradientTransform="translate(366.7 -.51) rotate(-180) scale(1 -1)" xlink:href="#linear-gradient"></linearGradient><linearGradient id="linear-gradient-8" x1="138.34" y1="46.86" x2="265.93" y2="46.86" gradientTransform="translate(366.7 -.51) rotate(-180) scale(1 -1)" xlink:href="#linear-gradient"></linearGradient><linearGradient id="linear-gradient-9" x1="32.48" y1="52.77" x2="67.52" y2="52.77" xlink:href="#linear-gradient"></linearGradient><linearGradient id="linear-gradient-10" x1="32.48" y1="52.77" x2="67.52" y2="52.77" gradientUnits="userSpaceOnUse"><stop offset="0" stop-color="#be8734"></stop><stop offset=".13" stop-color="#fdf6af"></stop><stop offset=".34" stop-color="#b87c2b"></stop><stop offset=".42" stop-color="#c49140"></stop><stop offset=".58" stop-color="#fdf6af"></stop><stop offset=".7" stop-color="#be8734"></stop><stop offset=".83" stop-color="#eed386"></stop></linearGradient><linearGradient id="linear-gradient-11" x1="27.2" y1="31.21" x2="87.4" y2="31.21" xlink:href="#linear-gradient"></linearGradient></defs><g id="Modo_de_isolamento" data-name="Modo de isolamento"><g><rect class="cls-15" y="19.1" width="228.36" height="34.35"></rect><g><g><rect class="cls-19" x="81.55" y="26.41" width="124.01" height=".44"></rect><circle class="cls-1" cx="207.34" cy="26.64" r="1.78"></circle></g><g><rect class="cls-18" x="81.55" y="26.41" width="124.01" height=".44"></rect><circle class="cls-20" cx="207.34" cy="26.64" r="1.78"></circle></g></g><path class="cls-5" d="m23.91,11.94c0,.31.26.57.57.57s.57-.26.57-.57-.26-.57-.57-.57-.57.26-.57.57Z"></path><path class="cls-10" d="m42.39,19.94c0,.31.26.57.57.57s.57-.26.57-.57-.26-.57-.57-.57-.57.26-.57.57Z"></path><path class="cls-6" d="m62.99,63.65c-14.53,7.17-32.13,1.2-39.3-13.33-7.17-14.53-1.2-32.13,13.33-39.3,14.53-7.17,32.13-1.2,39.3,13.33,7.17,14.53,1.2,32.13-13.33,39.3Z"></path><g><path class="cls-12" d="m74,63.21c-.64-.75-1.77-.83-2.52-.19-.69.6-.81,1.6-.31,2.34-1.76,1.32-3.64,2.49-5.62,3.47-17.37,8.57-38.47,1.41-47.04-15.95-6.32-12.8-4.2-28.13,5.15-38.75.7.55,1.71.5,2.36-.14.7-.7.69-1.83,0-2.53-.7-.7-1.83-.69-2.53,0-.67.68-.69,1.75-.06,2.45-9.44,10.72-11.58,26.19-5.21,39.11,8.65,17.52,29.94,24.75,47.47,16.1,2.01-.99,3.91-2.17,5.68-3.51.65.68,1.73.74,2.45.12.75-.64.83-1.77.19-2.52Z"></path><path class="cls-7" d="m74,63.21c-.64-.75-1.77-.83-2.52-.19-.69.6-.81,1.6-.31,2.34-1.76,1.32-3.64,2.49-5.62,3.47-17.37,8.57-38.47,1.41-47.04-15.95-6.32-12.8-4.2-28.13,5.15-38.75.7.55,1.71.5,2.36-.14.7-.7.69-1.83,0-2.53-.7-.7-1.83-.69-2.53,0-.67.68-.69,1.75-.06,2.45-9.44,10.72-11.58,26.19-5.21,39.11,8.65,17.52,29.94,24.75,47.47,16.1,2.01-.99,3.91-2.17,5.68-3.51.65.68,1.73.74,2.45.12.75-.64.83-1.77.19-2.52Z"></path></g><path class="cls-3" d="m32.56,20.17h1.21v5.7h7.24v-5.7h1.21v12.94h-1.21v-6.14h-7.24v6.14h-1.21v-12.94h0Zm13.2,0h1.21v12.94h-1.21v-12.94h0Zm-13.36,14.79h4c1.12,0,2.07.14,2.85.41.78.27,1.43.62,1.95,1.05.52.43.93.9,1.22,1.42s.52,1.01.66,1.49c.14.48.23.9.27,1.29.04.38.05.65.05.81s-.02.43-.05.81-.12.81-.27,1.29c-.14.48-.36.97-.66,1.49s-.71.99-1.22,1.42c-.52.43-1.17.78-1.95,1.05s-1.73.41-2.85.41h-4v-12.94h0Zm1.21,11.84h2.49c.85,0,1.65-.11,2.39-.32.74-.21,1.39-.54,1.94-.98.55-.44.98-1,1.3-1.67.32-.68.48-1.48.48-2.4s-.16-1.73-.48-2.4c-.32-.68-.75-1.23-1.3-1.67-.55-.44-1.19-.76-1.94-.98-.74-.21-1.54-.32-2.39-.32h-2.49v10.75h0Zm13.71-6.14h2.56c.63,0,1.15-.08,1.54-.24.4-.16.7-.35.92-.58.22-.23.37-.48.45-.75.08-.27.12-.51.12-.73s-.04-.46-.12-.73c-.08-.27-.23-.52-.45-.75-.22-.23-.53-.43-.92-.59-.4-.16-.91-.24-1.54-.24h-2.56v4.61h0Zm-1.21-5.7h3.4c.17,0,.4,0,.69.02.29.01.61.05.95.11.34.06.69.16,1.04.29.35.13.67.33.95.58.28.26.51.58.69.97.18.39.27.87.27,1.43,0,.62-.11,1.13-.32,1.54-.21.4-.48.73-.8.98-.32.25-.68.44-1.07.56-.39.12-.76.21-1.11.26l3.77,6.21h-1.37l-3.64-6.14h-2.25v6.14h-1.21v-12.94h0Zm14.8,0h1.24l5.45,12.94h-1.35l-1.41-3.44h-6.85l-1.46,3.44h-1.26l5.65-12.94h0Zm.57,1.32l-3.02,7.09h5.94l-2.92-7.09Z"></path><g><path class="cls-11" d="m82.25,26.3h-26.35c-.04-.34-.18-.67-.42-.95-.64-.75-1.77-.83-2.52-.19-.75.64-.83,1.77-.19,2.52.64.75,1.77.83,2.52.19.35-.3.55-.71.6-1.14h26.57c-.07-.14-.14-.29-.21-.43Z"></path><path class="cls-14" d="m82.25,26.3h-26.35c-.04-.34-.18-.67-.42-.95-.64-.75-1.77-.83-2.52-.19-.75.64-.83,1.77-.19,2.52.64.75,1.77.83,2.52.19.35-.3.55-.71.6-1.14h26.57c-.07-.14-.14-.29-.21-.43Z"></path></g><g><g><rect class="cls-16" x="104.35" y="46.14" width="124.01" height=".44"></rect><circle class="cls-13" cx="102.56" cy="46.36" r="1.78"></circle></g><g><rect class="cls-17" x="104.35" y="46.14" width="124.01" height=".44"></rect><circle class="cls-21" cx="102.56" cy="46.36" r="1.78"></circle></g></g><g><path class="cls-4" d="m32.48,50.68h1.41c.2,0,.4.02.58.06s.35.11.49.2.26.22.34.37c.08.16.13.35.13.58,0,.26-.05.48-.14.64-.09.16-.21.29-.37.38-.15.09-.33.15-.54.18-.2.03-.42.05-.64.05h-.53v1.73h-.75v-4.19h0Zm1.2,1.82c.11,0,.22,0,.33-.01.11,0,.22-.03.32-.07.1-.04.18-.1.24-.18.06-.08.09-.19.09-.33,0-.13-.03-.23-.08-.31-.06-.08-.13-.14-.21-.18-.09-.04-.18-.07-.29-.08-.11-.01-.21-.02-.31-.02h-.53v1.18h.45Zm9.7-1.82h2.77v.67h-2.03v1.03h1.92v.67h-1.92v1.14h2.14v.67h-2.88v-4.19h0Zm10.9,0h.75v3.51h1.78v.67h-2.53v-4.19h0Zm10.36,0h2.77v.67h-2.03v1.03h1.92v.67h-1.92v1.14h2.14v.67h-2.88v-4.19Z"></path><path class="cls-8" d="m32.48,50.68h1.41c.2,0,.4.02.58.06s.35.11.49.2.26.22.34.37c.08.16.13.35.13.58,0,.26-.05.48-.14.64-.09.16-.21.29-.37.38-.15.09-.33.15-.54.18-.2.03-.42.05-.64.05h-.53v1.73h-.75v-4.19h0Zm1.2,1.82c.11,0,.22,0,.33-.01.11,0,.22-.03.32-.07.1-.04.18-.1.24-.18.06-.08.09-.19.09-.33,0-.13-.03-.23-.08-.31-.06-.08-.13-.14-.21-.18-.09-.04-.18-.07-.29-.08-.11-.01-.21-.02-.31-.02h-.53v1.18h.45Zm9.7-1.82h2.77v.67h-2.03v1.03h1.92v.67h-1.92v1.14h2.14v.67h-2.88v-4.19h0Zm10.9,0h.75v3.51h1.78v.67h-2.53v-4.19h0Zm10.36,0h2.77v.67h-2.03v1.03h1.92v.67h-1.92v1.14h2.14v.67h-2.88v-4.19Z"></path></g><path class="cls-9" d="m27.2,7.81c1.96-1.52,4.09-2.85,6.34-3.95,18.46-9.11,40.89-1.5,50,16.96,3.38,6.85,4.57,14.45,3.46,21.97-1.09,7.35-4.3,14.14-9.27,19.63l-3.16-2.87c9.17-10.13,11.19-24.59,5.15-36.85C71.64,6.35,51.78-.39,35.43,7.68c-1.99.98-3.88,2.16-5.62,3.5l-2.61-3.38Z"></path><g><g><path class="cls-2" d="m115.59,38.78c-.34,0-.67-.06-.98-.17s-.55-.25-.72-.43l.19-.37c.16.16.38.29.65.4.27.11.56.16.86.16s.52-.04.71-.11c.18-.07.32-.17.4-.29s.13-.26.13-.41c0-.18-.05-.32-.15-.43-.1-.11-.24-.2-.4-.26s-.35-.12-.55-.17c-.2-.05-.4-.1-.6-.15-.2-.05-.39-.13-.55-.22-.17-.09-.3-.21-.41-.36-.1-.15-.15-.35-.15-.59,0-.23.06-.44.18-.63.12-.19.3-.34.55-.46s.57-.17.96-.17c.26,0,.51.04.77.11.25.07.47.17.66.3l-.16.39c-.2-.13-.41-.23-.63-.29-.22-.06-.43-.09-.64-.09-.28,0-.5.04-.68.11-.18.07-.31.17-.4.3-.08.12-.13.27-.13.42,0,.18.05.32.15.43s.24.19.41.26c.17.06.35.12.55.16.2.05.4.1.6.16.2.06.38.13.55.22.17.09.3.21.41.36.1.15.15.34.15.58,0,.22-.06.43-.18.62-.12.19-.31.34-.56.46-.25.12-.57.17-.97.17Z"></path><path class="cls-2" d="m121.21,38.32h2.76v.42h-3.25v-4.59h3.15v.42h-2.66v3.75Zm-.05-2.12h2.43v.41h-2.43v-.41Zm.72-2.43l.9-.81h.62l-1.06.81h-.46Z"></path><path class="cls-2" d="m127.47,38.74v-4.59h1.72c.39,0,.72.06,1,.19.28.12.5.3.65.54.15.23.23.52.23.85s-.08.6-.23.84c-.15.23-.37.41-.65.54-.28.12-.61.19-1,.19h-1.45l.22-.22v1.68h-.49Zm.49-1.64l-.22-.23h1.44c.46,0,.81-.1,1.05-.3.24-.2.36-.48.36-.85s-.12-.65-.36-.85-.59-.3-1.05-.3h-1.44l.22-.23v2.76Zm2.65,1.64l-1.18-1.67h.53l1.19,1.67h-.53Z"></path><path class="cls-2" d="m136.42,38.78c-.59,0-1.05-.17-1.38-.51-.34-.34-.51-.83-.51-1.5v-2.63h.49v2.61c0,.54.12.94.37,1.2.24.26.59.39,1.04.39s.8-.13,1.04-.39c.25-.26.37-.66.37-1.2v-2.61h.47v2.63c0,.66-.17,1.16-.5,1.5-.33.34-.79.51-1.38.51Z"></path><path class="cls-2" d="m142.13,38.74v-4.59h.4l2.1,3.58h-.21l2.08-3.58h.4v4.59h-.47v-3.86h.11l-1.92,3.28h-.23l-1.93-3.28h.12v3.86h-.47Z"></path></g><g><path class="cls-2" d="m158.65,38.74h-.49v-4.59h3.15v.42h-2.66v4.17Zm-.05-2.37h2.43v.42h-2.43v-.42Z"></path><path class="cls-2" d="m163.73,38.74l2.1-4.59h.48l2.1,4.59h-.51l-1.93-4.31h.2l-1.93,4.31h-.51Zm.83-1.23l.14-.39h2.67l.14.39h-2.96Z"></path><path class="cls-2" d="m173.46,38.78c-.35,0-.67-.06-.96-.17-.29-.12-.55-.28-.76-.49-.21-.21-.38-.46-.5-.74s-.18-.59-.18-.93.06-.65.18-.93.29-.53.5-.74c.22-.21.47-.37.76-.49s.61-.17.96-.17.65.06.94.17c.29.11.54.28.74.5l-.31.31c-.19-.19-.4-.33-.62-.42-.23-.08-.47-.13-.73-.13-.28,0-.53.05-.77.14-.24.09-.44.23-.62.4-.18.17-.31.37-.41.6-.1.23-.15.48-.15.76s.05.53.15.76c.1.23.23.43.41.6.17.17.38.31.62.4.24.09.49.14.77.14s.51-.04.73-.13c.23-.09.44-.23.62-.42l.31.31c-.2.22-.45.39-.74.5-.29.11-.61.17-.94.17Z"></path><path class="cls-2" d="m178.54,38.74v-4.59h.49v4.59h-.49Z"></path><path class="cls-2" d="m182.15,38.74l2.1-4.59h.48l2.1,4.59h-.51l-1.93-4.31h.2l-1.93,4.31h-.51Zm.83-1.23l.14-.39h2.67l.14.39h-2.96Z"></path><path class="cls-2" d="m189.95,38.74v-4.59h.49v4.17h2.57v.42h-3.06Z"></path></g></g></g></g></svg>