<svg xmlns="http://www.w3.org/2000/svg" xmlns:xlink="http://www.w3.org/1999/xlink" id="Camada_2" data-name="Camada 2" viewBox="0 0 99.19 13.43"><defs><style>      .cls-1 {        fill: #fff;      }      .cls-1, .cls-2, .cls-3 {        fill-rule: evenodd;      }      .cls-2 {        fill: url(#linear-gradient-2);      }      .cls-3 {        fill: url(#linear-gradient);      }    </style><linearGradient id="linear-gradient" x1="55.15" y1="6.69" x2="99.19" y2="6.69" gradientUnits="userSpaceOnUse"><stop offset=".02" stop-color="#fee8a8"></stop><stop offset=".49" stop-color="#c06a29"></stop><stop offset=".7" stop-color="#fee8a8"></stop><stop offset=".87" stop-color="#c06a29"></stop></linearGradient><linearGradient id="linear-gradient-2" x1="55.15" y1="6.69" x2="99.19" y2="6.69" gradientUnits="userSpaceOnUse"><stop offset="0" stop-color="#be8734"></stop><stop offset=".13" stop-color="#fdf6af"></stop><stop offset=".34" stop-color="#b87c2b"></stop><stop offset=".42" stop-color="#c49140"></stop><stop offset=".58" stop-color="#fdf6af"></stop><stop offset=".7" stop-color="#be8734"></stop><stop offset=".83" stop-color="#eed386"></stop></linearGradient></defs><g id="Camada_1-2" data-name="Camada 1"><path class="cls-1" d="m0,.49h1.21v5.7h7.24V.49h1.21v12.94h-1.21v-6.14H1.21v6.14H0V.49h0Zm13.07,0h1.08v12.94h-1.08V.49h0Zm4.32,0h4c1.12,0,2.07.14,2.85.41.78.27,1.43.62,1.95,1.05.52.43.93.9,1.22,1.42s.52,1.01.66,1.49c.14.48.23.9.27,1.29.04.38.05.65.05.81s-.02.43-.05.81-.12.81-.27,1.29c-.14.48-.36.97-.66,1.49s-.71.99-1.22,1.42c-.52.43-1.17.78-1.95,1.05s-1.73.41-2.85.41h-4V.49h0Zm1.21,11.84h2.49c.85,0,1.65-.11,2.39-.32.74-.21,1.39-.54,1.94-.98.55-.44.98-1,1.3-1.67.32-.68.48-1.48.48-2.4s-.16-1.73-.48-2.4c-.32-.68-.75-1.23-1.3-1.67-.55-.44-1.19-.76-1.94-.98-.74-.21-1.54-.32-2.39-.32h-2.49v10.75h0Zm13.71-6.14h2.56c.63,0,1.15-.08,1.54-.24.4-.16.7-.35.92-.58.22-.23.37-.48.45-.75.08-.27.12-.51.12-.73s-.04-.46-.12-.73c-.08-.27-.23-.52-.45-.75-.22-.23-.53-.43-.92-.59-.4-.16-.91-.24-1.54-.24h-2.56v4.61h0Zm-1.21-5.7h3.4c.17,0,.4,0,.69.02.29.01.61.05.95.11.34.06.69.16,1.04.29.35.13.67.33.95.58.28.26.51.58.69.97.18.39.27.87.27,1.43,0,.62-.11,1.13-.32,1.54-.21.4-.48.73-.8.98-.32.25-.68.44-1.07.56-.39.12-.76.21-1.11.26l3.77,6.21h-1.37l-3.64-6.14h-2.25v6.14h-1.21V.49h0Zm14.8,0h1.24l5.45,12.94h-1.35l-1.41-3.44h-6.85l-1.46,3.44h-1.26L45.9.49h0Zm.57,1.32l-3.02,7.09h5.94l-2.92-7.09Z"></path><g><path class="cls-3" d="m55.15,0h4.49c.64,0,1.26.06,1.86.19s1.12.34,1.58.63.82.69,1.09,1.19c.27.5.41,1.12.41,1.86,0,.84-.14,1.52-.43,2.04-.29.52-.68.92-1.17,1.2-.49.28-1.06.48-1.71.58-.65.1-1.33.15-2.03.15h-1.7v5.53h-2.38V0h0Zm3.82,5.8c.34,0,.69-.01,1.06-.04.36-.03.7-.1,1.01-.23.31-.13.56-.31.75-.57.2-.25.29-.6.29-1.06,0-.42-.09-.75-.26-.99-.18-.25-.4-.43-.68-.57-.28-.13-.59-.22-.92-.26-.34-.04-.67-.06-.98-.06h-1.7v3.76h1.43Zm8.02-5.8h8.86v2.15h-6.48v3.29h6.14v2.15h-6.14v3.63h6.82v2.15h-9.2V0h0Zm12.03,0h2.38v11.22h5.68v2.15h-8.06V0h0Zm10.98,0h8.86v2.15h-6.48v3.29h6.14v2.15h-6.14v3.63h6.82v2.15h-9.2V0Z"></path><path class="cls-2" d="m55.15,0h4.49c.64,0,1.26.06,1.86.19s1.12.34,1.58.63.82.69,1.09,1.19c.27.5.41,1.12.41,1.86,0,.84-.14,1.52-.43,2.04-.29.52-.68.92-1.17,1.2-.49.28-1.06.48-1.71.58-.65.1-1.33.15-2.03.15h-1.7v5.53h-2.38V0h0Zm3.82,5.8c.34,0,.69-.01,1.06-.04.36-.03.7-.1,1.01-.23.31-.13.56-.31.75-.57.2-.25.29-.6.29-1.06,0-.42-.09-.75-.26-.99-.18-.25-.4-.43-.68-.57-.28-.13-.59-.22-.92-.26-.34-.04-.67-.06-.98-.06h-1.7v3.76h1.43Zm8.02-5.8h8.86v2.15h-6.48v3.29h6.14v2.15h-6.14v3.63h6.82v2.15h-9.2V0h0Zm12.03,0h2.38v11.22h5.68v2.15h-8.06V0h0Zm10.98,0h8.86v2.15h-6.48v3.29h6.14v2.15h-6.14v3.63h6.82v2.15h-9.2V0Z"></path></g></g></svg>