<svg xmlns="http://www.w3.org/2000/svg" id="Camada_2" data-name="Camada 2" viewBox="0 0 3500 1998.05"><defs><style>      .cls-1 {        fill: #f6f6f6;      }      .cls-2 {        fill: #be1622;      }      .cls-3 {        fill: #29235c;      }    </style></defs><g id="Layer_1" data-name="Layer 1"><g><g><rect class="cls-1" x="1259.87" y="153.7" width="2240.13" height="153.7"></rect><rect class="cls-1" x="1259.87" y="461.09" width="2240.13" height="153.7"></rect><rect class="cls-1" y="768.48" width="3500" height="153.7"></rect><rect class="cls-1" y="1075.87" width="3500" height="153.7"></rect><rect class="cls-1" y="1383.26" width="3500" height="153.7"></rect><rect class="cls-1" y="1690.66" width="3500" height="153.7"></rect><g><rect class="cls-2" x="1259.87" width="2240.13" height="153.7"></rect><rect class="cls-2" x="1259.87" y="307.39" width="2240.13" height="153.7"></rect><rect class="cls-2" y="614.78" width="3500" height="153.7"></rect><rect class="cls-2" y="922.18" width="3500" height="153.7"></rect><rect class="cls-2" y="1229.57" width="3500" height="153.7"></rect><rect class="cls-2" y="1536.96" width="3500" height="153.7"></rect><rect class="cls-2" y="1844.35" width="3500" height="153.7"></rect></g></g><rect class="cls-3" x="0" y="0" width="1259.87" height="1075.87"></rect><g><polygon class="cls-1" points="91.29 76.88 104.01 116.02 145.15 116.02 111.86 140.21 124.58 179.34 91.29 155.15 58 179.34 70.72 140.21 37.43 116.02 78.57 116.02 91.29 76.88"></polygon><polygon class="cls-1" points="199.02 179.34 211.73 218.48 252.88 218.48 219.59 242.66 232.31 281.8 199.02 257.61 165.73 281.8 178.44 242.66 145.15 218.48 186.3 218.48 199.02 179.34"></polygon><polygon class="cls-1" points="306.75 76.88 319.46 116.02 360.61 116.02 327.32 140.21 340.04 179.34 306.75 155.15 273.46 179.34 286.17 140.21 252.88 116.02 294.03 116.02 306.75 76.88"></polygon><polygon class="cls-1" points="414.48 179.34 427.19 218.48 468.34 218.48 435.05 242.66 447.77 281.8 414.48 257.61 381.19 281.8 393.9 242.66 360.61 218.48 401.76 218.48 414.48 179.34"></polygon><polygon class="cls-1" points="522.2 76.88 534.92 116.02 576.07 116.02 542.78 140.21 555.49 179.34 522.2 155.15 488.91 179.34 501.63 140.21 468.34 116.02 509.49 116.02 522.2 76.88"></polygon><polygon class="cls-1" points="629.93 179.34 642.65 218.48 683.8 218.48 650.51 242.66 663.22 281.8 629.93 257.61 596.64 281.8 609.36 242.66 576.07 218.48 617.22 218.48 629.93 179.34"></polygon><polygon class="cls-1" points="737.66 76.88 750.38 116.02 791.53 116.02 758.24 140.21 770.95 179.34 737.66 155.15 704.37 179.34 717.09 140.21 683.8 116.02 724.95 116.02 737.66 76.88"></polygon><polygon class="cls-1" points="845.39 179.34 858.11 218.48 899.25 218.48 865.96 242.66 878.68 281.8 845.39 257.61 812.1 281.8 824.82 242.66 791.53 218.48 832.67 218.48 845.39 179.34"></polygon><polygon class="cls-1" points="953.12 76.88 965.83 116.02 1006.98 116.02 973.69 140.21 986.41 179.34 953.12 155.15 919.83 179.34 932.54 140.21 899.25 116.02 940.4 116.02 953.12 76.88"></polygon><polygon class="cls-1" points="1060.85 179.34 1073.56 218.48 1114.71 218.48 1081.42 242.66 1094.14 281.8 1060.85 257.61 1027.56 281.8 1040.27 242.66 1006.98 218.48 1048.13 218.48 1060.85 179.34"></polygon><polygon class="cls-1" points="1168.57 76.88 1181.29 116.02 1222.44 116.02 1189.15 140.21 1201.86 179.34 1168.57 155.15 1135.28 179.34 1148 140.21 1114.71 116.02 1155.86 116.02 1168.57 76.88"></polygon><polygon class="cls-1" points="91.29 281.8 104.01 320.93 145.15 320.93 111.86 345.12 124.58 384.25 91.29 360.07 58 384.25 70.72 345.12 37.43 320.93 78.57 320.93 91.29 281.8"></polygon><polygon class="cls-1" points="199.02 384.25 211.73 423.39 252.88 423.39 219.59 447.57 232.31 486.71 199.02 462.52 165.73 486.71 178.44 447.57 145.15 423.39 186.3 423.39 199.02 384.25"></polygon><polygon class="cls-1" points="306.75 281.8 319.46 320.93 360.61 320.93 327.32 345.12 340.04 384.25 306.75 360.07 273.46 384.25 286.17 345.12 252.88 320.93 294.03 320.93 306.75 281.8"></polygon><polygon class="cls-1" points="414.48 384.25 427.19 423.39 468.34 423.39 435.05 447.57 447.77 486.71 414.48 462.52 381.19 486.71 393.9 447.57 360.61 423.39 401.76 423.39 414.48 384.25"></polygon><polygon class="cls-1" points="522.2 281.8 534.92 320.93 576.07 320.93 542.78 345.12 555.49 384.25 522.2 360.07 488.91 384.25 501.63 345.12 468.34 320.93 509.49 320.93 522.2 281.8"></polygon><polygon class="cls-1" points="629.93 384.25 642.65 423.39 683.8 423.39 650.51 447.57 663.22 486.71 629.93 462.52 596.64 486.71 609.36 447.57 576.07 423.39 617.22 423.39 629.93 384.25"></polygon><polygon class="cls-1" points="737.66 281.8 750.38 320.93 791.53 320.93 758.24 345.12 770.95 384.25 737.66 360.07 704.37 384.25 717.09 345.12 683.8 320.93 724.95 320.93 737.66 281.8"></polygon><polygon class="cls-1" points="845.39 384.25 858.11 423.39 899.25 423.39 865.96 447.57 878.68 486.71 845.39 462.52 812.1 486.71 824.82 447.57 791.53 423.39 832.67 423.39 845.39 384.25"></polygon><polygon class="cls-1" points="953.12 281.8 965.83 320.93 1006.98 320.93 973.69 345.12 986.41 384.25 953.12 360.07 919.83 384.25 932.54 345.12 899.25 320.93 940.4 320.93 953.12 281.8"></polygon><polygon class="cls-1" points="1060.85 384.25 1073.56 423.39 1114.71 423.39 1081.42 447.57 1094.14 486.71 1060.85 462.52 1027.56 486.71 1040.27 447.57 1006.98 423.39 1048.13 423.39 1060.85 384.25"></polygon><polygon class="cls-1" points="1168.57 281.8 1181.29 320.93 1222.44 320.93 1189.15 345.12 1201.86 384.25 1168.57 360.07 1135.28 384.25 1148 345.12 1114.71 320.93 1155.86 320.93 1168.57 281.8"></polygon><polygon class="cls-1" points="91.29 486.71 104.01 525.84 145.15 525.84 111.86 550.03 124.58 589.16 91.29 564.98 58 589.16 70.72 550.03 37.43 525.84 78.57 525.84 91.29 486.71"></polygon><polygon class="cls-1" points="199.02 589.16 211.73 628.3 252.88 628.3 219.59 652.49 232.31 691.62 199.02 667.43 165.73 691.62 178.44 652.49 145.15 628.3 186.3 628.3 199.02 589.16"></polygon><polygon class="cls-1" points="306.75 486.71 319.46 525.84 360.61 525.84 327.32 550.03 340.04 589.16 306.75 564.98 273.46 589.16 286.17 550.03 252.88 525.84 294.03 525.84 306.75 486.71"></polygon><polygon class="cls-1" points="414.48 589.16 427.19 628.3 468.34 628.3 435.05 652.49 447.77 691.62 414.48 667.43 381.19 691.62 393.9 652.49 360.61 628.3 401.76 628.3 414.48 589.16"></polygon><polygon class="cls-1" points="522.2 486.71 534.92 525.84 576.07 525.84 542.78 550.03 555.49 589.16 522.2 564.98 488.91 589.16 501.63 550.03 468.34 525.84 509.49 525.84 522.2 486.71"></polygon><polygon class="cls-1" points="629.93 589.16 642.65 628.3 683.8 628.3 650.51 652.49 663.22 691.62 629.93 667.43 596.64 691.62 609.36 652.49 576.07 628.3 617.22 628.3 629.93 589.16"></polygon><polygon class="cls-1" points="737.66 486.71 750.38 525.84 791.53 525.84 758.24 550.03 770.95 589.16 737.66 564.98 704.37 589.16 717.09 550.03 683.8 525.84 724.95 525.84 737.66 486.71"></polygon><polygon class="cls-1" points="845.39 589.16 858.11 628.3 899.25 628.3 865.96 652.49 878.68 691.62 845.39 667.43 812.1 691.62 824.82 652.49 791.53 628.3 832.67 628.3 845.39 589.16"></polygon><polygon class="cls-1" points="953.12 486.71 965.83 525.84 1006.98 525.84 973.69 550.03 986.41 589.16 953.12 564.98 919.83 589.16 932.54 550.03 899.25 525.84 940.4 525.84 953.12 486.71"></polygon><polygon class="cls-1" points="1060.85 589.16 1073.56 628.3 1114.71 628.3 1081.42 652.49 1094.14 691.62 1060.85 667.43 1027.56 691.62 1040.27 652.49 1006.98 628.3 1048.13 628.3 1060.85 589.16"></polygon><polygon class="cls-1" points="1168.57 486.71 1181.29 525.84 1222.44 525.84 1189.15 550.03 1201.86 589.16 1168.57 564.98 1135.28 589.16 1148 550.03 1114.71 525.84 1155.86 525.84 1168.57 486.71"></polygon><polygon class="cls-1" points="91.29 691.62 104.01 730.75 145.15 730.75 111.86 754.94 124.58 794.08 91.29 769.89 58 794.08 70.72 754.94 37.43 730.75 78.57 730.75 91.29 691.62"></polygon><polygon class="cls-1" points="199.02 794.08 211.73 833.21 252.88 833.21 219.59 857.4 232.31 896.53 199.02 872.35 165.73 896.53 178.44 857.4 145.15 833.21 186.3 833.21 199.02 794.08"></polygon><polygon class="cls-1" points="306.75 691.62 319.46 730.75 360.61 730.75 327.32 754.94 340.04 794.08 306.75 769.89 273.46 794.08 286.17 754.94 252.88 730.75 294.03 730.75 306.75 691.62"></polygon><polygon class="cls-1" points="414.48 794.08 427.19 833.21 468.34 833.21 435.05 857.4 447.77 896.53 414.48 872.35 381.19 896.53 393.9 857.4 360.61 833.21 401.76 833.21 414.48 794.08"></polygon><polygon class="cls-1" points="522.2 691.62 534.92 730.75 576.07 730.75 542.78 754.94 555.49 794.08 522.2 769.89 488.91 794.08 501.63 754.94 468.34 730.75 509.49 730.75 522.2 691.62"></polygon><polygon class="cls-1" points="629.93 794.08 642.65 833.21 683.8 833.21 650.51 857.4 663.22 896.53 629.93 872.35 596.64 896.53 609.36 857.4 576.07 833.21 617.22 833.21 629.93 794.08"></polygon><polygon class="cls-1" points="737.66 691.62 750.38 730.75 791.53 730.75 758.24 754.94 770.95 794.08 737.66 769.89 704.37 794.08 717.09 754.94 683.8 730.75 724.95 730.75 737.66 691.62"></polygon><polygon class="cls-1" points="845.39 794.08 858.11 833.21 899.25 833.21 865.96 857.4 878.68 896.53 845.39 872.35 812.1 896.53 824.82 857.4 791.53 833.21 832.67 833.21 845.39 794.08"></polygon><polygon class="cls-1" points="953.12 691.62 965.83 730.75 1006.98 730.75 973.69 754.94 986.41 794.08 953.12 769.89 919.83 794.08 932.54 754.94 899.25 730.75 940.4 730.75 953.12 691.62"></polygon><polygon class="cls-1" points="1060.85 794.08 1073.56 833.21 1114.71 833.21 1081.42 857.4 1094.14 896.53 1060.85 872.35 1027.56 896.53 1040.27 857.4 1006.98 833.21 1048.13 833.21 1060.85 794.08"></polygon><polygon class="cls-1" points="1168.57 691.62 1181.29 730.75 1222.44 730.75 1189.15 754.94 1201.86 794.08 1168.57 769.89 1135.28 794.08 1148 754.94 1114.71 730.75 1155.86 730.75 1168.57 691.62"></polygon><polygon class="cls-1" points="91.29 896.53 104.01 935.67 145.15 935.67 111.86 959.85 124.58 998.99 91.29 974.8 58 998.99 70.72 959.85 37.43 935.67 78.57 935.67 91.29 896.53"></polygon><polygon class="cls-1" points="306.75 896.53 319.46 935.67 360.61 935.67 327.32 959.85 340.04 998.99 306.75 974.8 273.46 998.99 286.17 959.85 252.88 935.67 294.03 935.67 306.75 896.53"></polygon><polygon class="cls-1" points="522.2 896.53 534.92 935.67 576.07 935.67 542.78 959.85 555.49 998.99 522.2 974.8 488.91 998.99 501.63 959.85 468.34 935.67 509.49 935.67 522.2 896.53"></polygon><polygon class="cls-1" points="737.66 896.53 750.38 935.67 791.53 935.67 758.24 959.85 770.95 998.99 737.66 974.8 704.37 998.99 717.09 959.85 683.8 935.67 724.95 935.67 737.66 896.53"></polygon><polygon class="cls-1" points="953.12 896.53 965.83 935.67 1006.98 935.67 973.69 959.85 986.41 998.99 953.12 974.8 919.83 998.99 932.54 959.85 899.25 935.67 940.4 935.67 953.12 896.53"></polygon><polygon class="cls-1" points="1168.57 896.53 1181.29 935.67 1222.44 935.67 1189.15 959.85 1201.86 998.99 1168.57 974.8 1135.28 998.99 1148 959.85 1114.71 935.67 1155.86 935.67 1168.57 896.53"></polygon></g></g></g></svg>