<svg xmlns="http://www.w3.org/2000/svg" id="Camada_2" data-name="Camada 2" viewBox="0 0 237.6 52.73"><defs><style>      .cls-1 {        fill: #fff;      }    </style></defs><g id="Camada_1-2" data-name="Camada 1"><g><g><path class="cls-1" d="m179.88,11.77c.41.05.83.05,1.3.07-.05-.27-.06-.45-.1-.46-4.29-.7-8.58-1.39-12.91-2.09.04-.14.13-.46.24-.78.79-2.25,1.6-4.5,2.37-6.76.3-.88-.21-1.65-.97-1.4-.39.13-.78.64-.94,1.06-.89,2.36-1.73,4.75-2.54,7.14-.27.78-.7,1.02-1.52,1.02-4.17.02-8.19.86-12.07,2.37-.35.13-.71.31-.96.57-.14.14-.15.53-.07.73.06.15.39.28.6.27.26-.01.51-.18.77-.27,2.25-.78,4.47-1.7,6.77-2.29,1.77-.45,3.64-.48,5.66-.72-.18.47-.23.63-.31.78-2.08,4.37-4.61,8.46-7.68,12.21-2.03,2.48-4.27,4.74-7.05,6.41-1.58.95-11.23,6.36-13.11,6.08-1.67-.25-2.43-1.04-2.7-2.68-.06-.39-.33-.74-.5-1.11-.41.2-.87.35-1.22.62-1.08.86-2.09,1.82-3.19,2.64-.3.22-.92.28-1.23.12-.24-.13-.39-.76-.31-1.11.45-2.06,1.61-3.67,3.45-4.71.9-.5,1.45-.2,2.06.77.09.15.34.21.56.33.21-1.49-.48-2.39-1.77-2.47-1.48-.1-2.67.58-3.55,1.64-.85,1.02-1.9,1.55-3.1,1.96-.72.25-1.42.55-2.13.82-3.38,1.28-9.96,1.92-13.56,2.39-1.85.24-2.41-.06-3.19-1.73-.21-.44-.41-.88-.65-1.3-.9-1.62-2.44-2.22-4.14-1.46-.94.42-1.81,1.02-2.64,1.64-1.03.78-1.97,1.66-3.16,2.67.19-.51.26-.77.38-1.01.58-1.18,1.19-2.35,1.74-3.54.12-.26.12-.79-.04-.92-.25-.19-.73-.26-1.03-.16-.31.11-.53.5-.8.76-.36.34-.68.81-1.11.98-3.39,1.39-6.78,2.82-10.23,4.04-1.61.57-3.37.81-5.08.99-1.91.2-3.05-1-2.84-2.92.1-.94.54-1.84.78-2.77.09-.35.04-.73.05-1.09-.47.07-1.21-.02-1.36.24-.56.97-1.14,2.02-1.34,3.1-.41,2.35.65,3.76,3.02,4.05,1.28.15,2.64.08,3.92-.15,4.33-.77,8.33-2.54,12.32-4.32.32-.14.64-.27,1.01-.42-.42,1.52-.82,2.88-1.14,4.26-.07.29.21.66.32.99.3-.12.66-.18.89-.38,1.36-1.24,2.64-2.57,4.03-3.76.78-.67,1.69-1.22,2.61-1.66,1.01-.48,1.32-.26,1.68.81,1.16,3.42,1.93,3.95,5.54,3.8.48-.02.97-.06,1.45-.13,4.07-.62,11.05-1.63,14.88-3.07.33-.12.66-.25,1.11-.41-.15.56-.26.93-.35,1.29-.22.97-.14,1.91.69,2.55.82.63,1.72.4,2.54-.07.45-.26.87-.57,1.28-.89.63-.5,1.24-1.03,1.93-1.59.37,1.87,1.51,2.8,3.17,3.01.98.12,2.02.13,3-.02,2.7-.43,12.82-6.79,14.81-8.56,3.88-3.46,6.78-7.68,9.34-12.16.61-1.07,1.18-2.17,1.77-3.26.06.38-.01.71-.1,1.03-2.39,8.32-4.84,16.62-7.15,24.97-1.18,4.24-2.11,8.55-2.28,12.97-.01.37.23,1.05.42,1.07.77.09.54-.61.61-1.04.49-3.28.77-6.62,1.47-9.85,2.26-10.37,5.69-20.4,9.13-30.43.22-.66.58-.76,1.15-.69,3.75.46,7.5.92,11.25,1.37Z"></path><path class="cls-1" d="m75.12,27.42c.97-.12,2.02-.24,2.94,0,.68.17,1.11.15,1.56-.31.53-.54.81-1.18.38-1.87-.2-.31-.64-.69-.94-.66-.36.03-.77.4-1,.73-.22.31-.23.77-.34,1.18-6.67.18-12.51,2.86-18.06,5.84-2.82-3.31-5.63-6.43-8.23-9.72-1.49-1.89-2.83-3.96-3.88-6.12-1.75-3.58-1.08-7.02,1.32-10.14,1.56-2.03,3.58-3.53,5.97-4.37,1.84-.64,3.81-1.1,5.75-1.23,2.44-.17,3.55,1.69,2.48,3.89-.4.82-1.15,1.45-1.67,2.22-.21.3-.21.75-.3,1.12.39-.1,1-.07,1.12-.31.7-1.33,1.47-2.68,1.84-4.12.47-1.83-.62-3.16-2.51-3.48-.47-.08-.97-.09-1.45-.07-3.43.11-6.51,1.31-9.31,3.2-6.11,4.13-7.36,10.51-3.17,16.59,1.53,2.22,3.28,4.29,5,6.38,1.87,2.27,3.82,4.48,5.83,6.83-.55.34-.88.52-1.19.74-2.92,2.05-5.92,3.99-8.72,6.19-2.6,2.04-4.89,4.43-6.24,7.54-1.5,3.46-.28,5.32,3.48,5.24,4.75-.11,8.97-1.75,12.54-4.86,3.79-3.31,4.75-8.05,2.72-12.66-.31-.72-.7-1.4-1.07-2.13.73-.4,1.39-.77,2.07-1.12,4.15-2.12,8.42-3.93,13.09-4.52Zm-18.1,19.94c-3.06,2.63-6.6,4.3-10.68,4.63-.72.06-1.46,0-2.17-.12-1.48-.25-2.22-1.21-1.71-2.6.56-1.54,1.27-3.1,2.26-4.38,3.08-3.96,7.11-6.85,11.29-9.54.84-.54,1.72-1.03,2.64-1.58,3,4.51,2.87,9.7-1.64,13.58Z"></path><path class="cls-1" d="m195.79,25.74c-.36.14-.73.25-1.08.41-2.5,1.11-4.95,2.32-7.5,3.31-2.56.99-5.23,1.66-8.02,1.42-1.8-.16-2.56-1.01-2.83-2.77-.05-.36-.31-.97-.47-.97-.38,0-.81.24-1.13.5-1.13.91-2.16,1.95-3.35,2.76-.96.65-1.7.14-1.48-1,.41-2.11,1.61-3.75,3.51-4.76.7-.37,1.58-.46,1.93.66.06.2.33.32.56.54.4-1.49-.34-2.44-1.68-2.58-2.67-.27-6.03,3.94-5.77,6.23.18,1.62,1.41,2.4,2.9,1.69.89-.42,1.66-1.11,2.46-1.7.37-.27.68-.6,1.11-.99.42,1.81,1.51,2.75,3.06,2.97,1.32.19,2.71.23,4.03.06,4.86-.64,9.19-2.73,13.44-5.03.19-.1.32-.3.48-.45l-.16-.31Z"></path></g><g><path class="cls-1" d="m15.32,23.79c-2.79,0-5.06-2.87-5.06-6.4s4.66-8.3,4.86-8.51l.2-.21.2.21c.2.2,4.86,5.05,4.86,8.51s-2.27,6.4-5.06,6.4Zm0-14.3c-.9.98-4.5,5.06-4.5,7.9,0,3.22,2.02,5.84,4.5,5.84s4.5-2.62,4.5-5.84c0-2.84-3.59-6.92-4.5-7.9Z"></path><path class="cls-1" d="m8.77,27.31c-1.26,0-2.56-.36-3.75-1.05C2.02,24.53.16,18.07.08,17.8l-.08-.28.28-.07c.28-.07,6.8-1.68,9.8.04,1.47.85,2.6,2.1,3.17,3.52.58,1.44.53,2.89-.15,4.07-.68,1.18-1.91,1.95-3.45,2.17-.29.04-.58.06-.88.06ZM.71,17.93c.4,1.27,2.13,6.42,4.59,7.84,1.36.79,2.88,1.11,4.27.92,1.36-.19,2.44-.86,3.04-1.89.59-1.03.64-2.3.12-3.58-.53-1.3-1.57-2.45-2.93-3.24h0c-2.46-1.42-7.79-.34-9.09-.05Z"></path><path class="cls-1" d="m6.11,36.03c-2.79,0-5.64-.71-5.82-.75l-.28-.07.08-.28c.08-.27,1.95-6.73,4.94-8.46h0c1.47-.85,3.11-1.2,4.63-.99,1.54.22,2.77.99,3.45,2.17.68,1.18.74,2.63.15,4.07-.57,1.42-1.7,2.67-3.17,3.52-1.04.6-2.49.8-3.97.8Zm-5.4-1.23c1.3.29,6.63,1.36,9.09-.05,1.36-.79,2.4-1.94,2.93-3.24.52-1.28.47-2.55-.12-3.58-.59-1.03-1.67-1.7-3.04-1.89-1.39-.2-2.91.13-4.27.92h0c-2.46,1.42-4.19,6.57-4.59,7.84Z"></path><path class="cls-1" d="m15.32,44.05l-.2-.21c-.2-.2-4.86-5.05-4.86-8.51s2.27-6.4,5.06-6.4,5.06,2.87,5.06,6.4-4.66,8.3-4.86,8.51l-.2.21Zm0-14.55c-2.48,0-4.5,2.62-4.5,5.84,0,2.84,3.59,6.92,4.5,7.9.9-.98,4.5-5.06,4.5-7.9,0-3.22-2.02-5.84-4.5-5.84Z"></path><path class="cls-1" d="m24.53,36.03c-1.48,0-2.94-.2-3.97-.8-3.06-1.77-4.41-5.17-3.01-7.59,1.4-2.42,5.02-2.95,8.08-1.18,2.99,1.73,4.86,8.19,4.94,8.46l.08.28-.28.07c-.18.05-3.03.75-5.82.75Zm-2.66-10.05c-1.64,0-3.09.67-3.83,1.95-1.24,2.15.02,5.2,2.81,6.81h0c2.46,1.42,7.79.35,9.09.05-.4-1.27-2.13-6.42-4.59-7.84-1.13-.65-2.35-.97-3.47-.97Z"></path><path class="cls-1" d="m21.88,27.31c-.3,0-.59-.02-.88-.06-1.54-.22-2.77-.99-3.45-2.17-1.4-2.42-.04-5.82,3.01-7.59,2.99-1.73,9.52-.11,9.8-.04l.28.07-.08.28c-.08.27-1.95,6.73-4.94,8.46h0c-1.19.69-2.49,1.05-3.75,1.05Zm2.62-10.04c-1.38,0-2.72.18-3.65.72-2.79,1.61-4.05,4.67-2.81,6.81.59,1.03,1.67,1.7,3.04,1.89,1.39.2,2.91-.13,4.27-.92h0c2.46-1.42,4.19-6.57,4.59-7.84-.81-.18-3.17-.66-5.43-.66Z"></path><path class="cls-1" d="m15.32,27.61c-.6,0-1.1-.49-1.1-1.1s.49-1.1,1.1-1.1,1.1.49,1.1,1.1-.49,1.1-1.1,1.1Zm0-1.63c-.29,0-.53.24-.53.53s.24.53.53.53.53-.24.53-.53-.24-.53-.53-.53Z"></path></g><g><path class="cls-1" d="m222.28,23.79c-2.79,0-5.06-2.87-5.06-6.4s4.66-8.3,4.86-8.51l.2-.21.2.21c.2.2,4.86,5.05,4.86,8.51s-2.27,6.4-5.06,6.4Zm0-14.3c-.9.98-4.5,5.06-4.5,7.9,0,3.22,2.02,5.84,4.5,5.84s4.5-2.62,4.5-5.84c0-2.84-3.59-6.92-4.5-7.9Z"></path><path class="cls-1" d="m215.73,27.31c-1.26,0-2.56-.36-3.75-1.05-2.99-1.73-4.86-8.19-4.94-8.46l-.08-.28.28-.07c.28-.07,6.8-1.68,9.8.04,1.47.85,2.6,2.1,3.17,3.52.58,1.44.53,2.89-.15,4.07-.68,1.18-1.91,1.95-3.45,2.17-.29.04-.58.06-.88.06Zm-8.05-9.38c.4,1.27,2.13,6.42,4.59,7.84,1.36.79,2.88,1.11,4.27.92,1.36-.19,2.44-.86,3.04-1.89.59-1.03.64-2.3.12-3.58-.53-1.3-1.57-2.45-2.93-3.24h0c-2.46-1.42-7.79-.34-9.09-.05Z"></path><path class="cls-1" d="m213.07,36.03c-2.79,0-5.64-.71-5.82-.75l-.28-.07.08-.28c.08-.27,1.95-6.73,4.94-8.46h0c1.47-.85,3.11-1.2,4.63-.99,1.54.22,2.77.99,3.45,2.17.68,1.18.74,2.63.15,4.07-.57,1.42-1.7,2.67-3.17,3.52-1.04.6-2.49.8-3.97.8Zm-5.4-1.23c1.3.29,6.63,1.36,9.09-.05,1.36-.79,2.4-1.94,2.93-3.24.52-1.28.47-2.55-.12-3.58-.59-1.03-1.67-1.7-3.04-1.89-1.39-.2-2.91.13-4.27.92h0c-2.46,1.42-4.19,6.57-4.59,7.84Z"></path><path class="cls-1" d="m222.28,44.05l-.2-.21c-.2-.2-4.86-5.05-4.86-8.51s2.27-6.4,5.06-6.4,5.06,2.87,5.06,6.4-4.66,8.3-4.86,8.51l-.2.21Zm0-14.55c-2.48,0-4.5,2.62-4.5,5.84,0,2.84,3.59,6.92,4.5,7.9.9-.98,4.5-5.06,4.5-7.9,0-3.22-2.02-5.84-4.5-5.84Z"></path><path class="cls-1" d="m231.5,36.03c-1.48,0-2.94-.2-3.97-.8-3.06-1.77-4.41-5.17-3.01-7.59,1.4-2.42,5.02-2.95,8.08-1.18,2.99,1.73,4.86,8.19,4.94,8.46l.08.28-.28.07c-.18.05-3.03.75-5.82.75Zm-2.66-10.05c-1.64,0-3.09.67-3.83,1.95-1.24,2.15.02,5.2,2.81,6.81h0c2.46,1.42,7.79.35,9.09.05-.4-1.27-2.13-6.42-4.59-7.84-1.13-.65-2.35-.97-3.47-.97Z"></path><path class="cls-1" d="m228.84,27.31c-.3,0-.59-.02-.88-.06-1.54-.22-2.77-.99-3.45-2.17-1.4-2.42-.04-5.82,3.01-7.59,2.99-1.73,9.52-.11,9.8-.04l.28.07-.08.28c-.08.27-1.95,6.73-4.94,8.46h0c-1.19.69-2.49,1.05-3.75,1.05Zm2.62-10.04c-1.38,0-2.72.18-3.65.72-2.79,1.61-4.05,4.67-2.81,6.81.59,1.03,1.67,1.7,3.04,1.89,1.39.2,2.91-.13,4.27-.92h0c2.46-1.42,4.19-6.57,4.59-7.84-.81-.18-3.17-.66-5.43-.66Z"></path><path class="cls-1" d="m222.28,27.61c-.6,0-1.1-.49-1.1-1.1s.49-1.1,1.1-1.1,1.1.49,1.1,1.1-.49,1.1-1.1,1.1Zm0-1.63c-.29,0-.53.24-.53.53s.24.53.53.53.53-.24.53-.53-.24-.53-.53-.53Z"></path></g></g></g></svg>