<svg xmlns="http://www.w3.org/2000/svg" xmlns:xlink="http://www.w3.org/1999/xlink" id="Camada_1" x="0px" y="0px" viewBox="0 0 4381.9 632.2" style="enable-background:new 0 0 4381.9 632.2;" xml:space="preserve"><style type="text/css">	.st0{fill-rule:evenodd;clip-rule:evenodd;fill:#FFFFFF;}	.st1{fill:#FFFFFF;}</style><path class="st0" d="M1469.3,517.9c24.8,1.2,49.6,2.4,74.4,3.6c14.5,15.3,29.1,30.6,43.6,45.9c28.2-30.8,56.4-61.5,84.6-92.3 c-11.7-4.9-22.6-14.1-34.3-17.1c-13.4-3.4-34.8,2-46.8-3.2c-13.7-5.9-16.5-21.8-28.1-29.1c-2.6-1.7-6.2-3-10.1-4.1 C1524.9,453.7,1497.1,485.8,1469.3,517.9z"></path><path class="st0" d="M1822.8,421.6c-3.9,1.2-7.5,2.5-10.1,4.1c-11.6,7.3-14.4,23.2-28.1,29.1c-12,5.2-33.4-0.2-46.7,3.2 c-11.7,3-22.6,12.2-34.3,17.1c28.2,30.8,56.4,61.5,84.6,92.3c14.5-15.3,29.1-30.6,43.6-45.9c24.8-1.2,49.6-2.4,74.4-3.6 C1878.4,485.8,1850.6,453.7,1822.8,421.6z"></path><path class="st0" d="M1872.9,259.5c-0.1-13.1,16-29.2,12.7-41.9c-3.7-14.5-26.5-24.2-33.1-37.6c-5.9-11.8,1.6-33.1-7-43.2 c-9.7-11.5-34.4-10.5-46.3-19.7c-10.5-8.1-13.2-30.5-25.3-36c-13.8-6.2-35.6,5.3-50.4,2c-13-2.9-25.3-21.9-38.6-21.6 c-15.1,0.3-29.7,20-44.4,23.4c-13,3-32.4-8.9-44.3-3c-13.5,6.8-17.9,30.8-29.7,40.1c-10.4,8.2-33.1,5.8-41.2,16.3 c-9.2,11.9-2.6,35.4-9.1,48.9c-5.7,11.9-27.3,19.4-29.9,32.3c-3,14.6,13.2,33.1,13.3,48c0.1,13.1-16,29.2-12.7,41.9 c3.7,14.5,26.5,24.2,33.1,37.6c5.9,11.8-1.6,33.2,7,43.2c9.7,11.5,34.4,10.5,46.3,19.7c10.5,8.1,13.2,30.5,25.3,36 c13.8,6.2,35.6-5.3,50.4-2c13,2.9,25.3,21.9,38.6,21.6c15.1-0.3,29.7-20,44.4-23.4c13-3,32.4,8.9,44.3,3 c13.5-6.8,17.9-30.8,29.7-40.1c10.4-8.2,33.1-5.8,41.2-16.3c9.2-11.9,2.6-35.4,9.1-48.9c5.7-11.9,27.3-19.4,29.9-32.3 C1889.3,292.9,1873,274.4,1872.9,259.5z M1779.9,357.1c-51.8,51.8-135.7,51.8-187.5,0c-51.8-51.8-51.8-135.7,0-187.5 c51.8-51.8,135.7-51.8,187.5,0c24.9,24.9,38.8,58.6,38.8,93.7C1818.7,298.6,1804.8,332.3,1779.9,357.1z"></path><path class="st1" d="M1787.6,248.5c7.1-6.9,7.2-18.2,0.3-25.3c-2.7-2.8-6.3-4.6-10.2-5.2l-51.7-7.5c-0.1,0-0.2-0.1-0.2-0.2 l-23.2-46.8c-4.4-8.8-15.1-12.5-23.9-8.1c-3.5,1.7-6.4,4.6-8.1,8.1l-23.1,46.9c0,0.1-0.1,0.1-0.2,0.2l-51.7,7.5 c-9.8,1.4-16.5,10.5-15.1,20.3c0.6,3.9,2.4,7.5,5.2,10.2L1623,285c0.1,0.1,0.1,0.2,0.1,0.3l-8.8,51.5c-1.7,9.7,4.9,19,14.6,20.6 c3.9,0.7,7.8,0,11.3-1.8l46.2-24.3c0.1,0,0.2,0,0.3,0l46.3,24.3c8.7,4.6,19.5,1.2,24.1-7.5c1.8-3.5,2.5-7.5,1.8-11.3l-8.8-51.5 c0-0.1,0-0.2,0.1-0.3L1787.6,248.5z M1732.8,288.2l8.8,51.5c0,0.1,0,0.2-0.1,0.3c-0.1,0.1-0.2,0.1-0.3,0l-46.3-24.3 c-5.2-2.7-11.4-2.7-16.6,0L1632,340c-0.1,0.1-0.2,0.1-0.3,0c-0.1-0.1-0.1-0.1-0.1-0.3l8.8-51.5c1-5.8-0.9-11.7-5.1-15.8l-37.4-36.5 c-0.1-0.1-0.1-0.1-0.1-0.3c0.1-0.2,0.1-0.2,0.2-0.2l51.7-7.5c5.8-0.8,10.9-4.5,13.5-9.8l23.1-46.9c0.1-0.1,0.1-0.2,0.3-0.2 s0.2,0,0.3,0.2l23.1,46.9c2.6,5.3,7.6,8.9,13.5,9.8l51.7,7.5c0.1,0,0.2,0,0.2,0.2c0.1,0.2,0,0.2-0.1,0.3l-37.4,36.5 C1733.6,276.5,1731.7,282.5,1732.8,288.2L1732.8,288.2z"></path><path class="st1" d="M3171.5,364c0-13.7-11.1-24.8-24.8-24.7c-13.7,0-24.7,11.1-24.7,24.7v49.5c0,13.7,11.1,24.8,24.8,24.7 c13.7,0,24.7-11.1,24.7-24.7V364z"></path><path class="st0" d="M3022.9,218.3c-41.7,10.2-74.3,45.6-74.3,90.4v137.2c0,66,57.4,116.2,123.8,116.2H3221 c66.5,0,123.8-50.2,123.8-116.2V308.7c0-44.8-32.6-80.2-74.3-90.4v-27.8c-0.1-68.4-55.6-123.8-124-123.7 c-68.3,0.1-123.7,55.4-123.7,123.7V218.3z M3221,190.6v24.8h-148.6v-24.8c0-41,33.2-74.3,74.3-74.4s74.3,33.2,74.4,74.3 C3221,190.5,3221,190.5,3221,190.6z M2998.1,308.7c0-22.4,20.3-43.8,49.5-43.8h198.2c29.3,0,49.5,21.5,49.5,43.8v137.2 c0,35-31.3,66.7-74.3,66.7h-148.6c-42.9,0-74.3-31.7-74.3-66.7V308.7z"></path><path class="st0" d="M582.5,311.2c-0.1-16.6,20.2-36.8,16-52.9c-4.7-18.2-33.4-30.5-41.8-47.4c-7.4-14.9,2-41.8-8.8-54.5 c-12.2-14.5-43.4-13.2-58.4-24.8c-13.2-10.3-16.6-38.5-31.9-45.4c-17.4-7.8-44.9,6.7-63.5,2.6c-16.4-3.7-32-27.7-48.8-27.4 c-19.1,0.4-37.5,25.2-56.1,29.5c-16.4,3.8-40.9-11.3-55.9-3.8c-17,8.5-22.7,38.8-37.5,50.6c-13.1,10.4-41.8,7.3-51.9,20.5 c-11.5,15-3.3,44.7-11.5,61.6c-7.2,15-34.4,24.5-37.7,40.7c-3.8,18.4,16.7,41.7,16.8,60.5c0.1,16.6-20.2,36.8-16,52.8 c4.7,18.2,33.4,30.5,41.8,47.4c7.4,14.9-2,41.8,8.8,54.5c12.2,14.5,43.4,13.2,58.4,24.9c13.2,10.3,16.6,38.5,31.9,45.4 c17.4,7.8,44.9-6.6,63.5-2.5c16.4,3.6,31.9,27.6,48.7,27.3c19.1-0.4,37.5-25.2,56.1-29.5c16.4-3.8,40.9,11.3,55.9,3.8 c17-8.5,22.6-38.8,37.5-50.6c13.1-10.4,41.8-7.3,51.9-20.5c11.5-15,3.3-44.7,11.5-61.6c7.2-15,34.4-24.5,37.7-40.7 C603.1,353.2,582.6,330,582.5,311.2z M491.9,461c-80,80-209.7,80-289.8,0s-80-209.7,0-289.8s209.7-80,289.8,0 c38.4,38.4,60,90.5,60,144.9C551.9,370.5,530.3,422.6,491.9,461L491.9,461z"></path><path class="st0" d="M473.7,189.5c-69.9-69.9-183.3-69.9-253.2,0s-69.9,183.3,0,253.2s183.3,69.9,253.2,0 c33.6-33.6,52.4-79.1,52.4-126.5C526.1,268.6,507.2,223.1,473.7,189.5z M345.8,375.9l-29.9,29.9L286,375.9l-57.3-57.3l29.9-29.9 l57.3,57.3l119.5-119.5l29.9,29.9L345.8,375.9z"></path><path class="st1" d="M850.1,280.6c-5.4,1-10.4,1.7-21.3,1.7c-15.8,0-33.8-8.4-33.8-39.6v-17.8c0-31.4,18.1-39.6,33.8-39.6 c7.2,0.1,14.4,0.8,21.5,2c1.2,0.1,2,0.5,2,1.7v6.5c0,0.8-0.2,1.4-1.5,1.4h-0.4c-4.6-0.4-14.1-1.1-21.5-1.1 c-12.5,0-22.3,7.3-22.3,29.1v17.8c0,21.5,9.7,29.1,22.3,29.1c7.3,0,16.5-0.6,21.1-1h0.5c1.4,0,2,0.6,2,2v5.3 C852.7,279.6,851.5,280.3,850.1,280.6z"></path><path class="st1" d="M896,282.3c-20.1,0-34.7-11.8-34.7-40.2v-16.6c0-28.4,14.6-40.2,34.7-40.2s34.6,11.8,34.6,40.2V242 C930.5,270.5,916.1,282.3,896,282.3z M918.8,225.6c0-21.5-8.7-29.7-22.8-29.7s-23,8.2-23,29.7V242c0,21.5,8.8,29.7,22.9,29.7 s22.8-8.2,22.8-29.7L918.8,225.6z"></path><path class="st1" d="M1023.2,281.4h-6.2c-1.4,0-2.6-1.2-2.6-2.6v-75.9c0-0.3,0-0.4-0.1-0.4s-0.1,0-0.3,0.2l-18.3,37.9 c-1.3,2.6-2.6,3.7-5.8,3.7h-5.9c-3.2,0-4.5-1.1-5.8-3.7L960,202.7c-0.1-0.2-0.1-0.2-0.3-0.2s-0.1,0.1-0.1,0.4v75.9 c0,1.4-1.1,2.6-2.6,2.6h-6.3c-1.4,0-2.6-1.2-2.6-2.6v-88.9c0-2.1,1.7-3.7,3.7-3.7h8.3c2.3,0,3.3,0.5,4.1,2.2l21.1,43.9 c0.5,1.1,0.9,1.4,1.5,1.4s1-0.2,1.5-1.4l21.1-43.9c0.8-1.7,1.8-2.2,4.1-2.2h8.3c2.1,0,3.7,1.7,3.7,3.7v88.9 C1025.8,280.2,1024.7,281.4,1023.2,281.4z"></path><path class="st1" d="M1070,243.5c-4.1,0-9.5-0.4-12.8-0.6v36c0.1,1.3-1,2.5-2.3,2.6h-6.9c-1.3-0.1-2.4-1.2-2.3-2.6v-89.3 c0-1.8,1.2-2.9,3.1-3.2c7.1-0.7,14.1-1.1,21.2-1c20.7,0,35.9,7.2,35.9,27.8v1.7C1105.9,236.2,1090.7,243.5,1070,243.5z  M1094.2,213.1c0-12.9-7.7-17.9-24.2-17.9c-4,0-9.7,0.2-12.8,0.5v37.5c2.9,0.1,9.5,0.5,12.8,0.5c17.5,0,24.2-5.6,24.2-18.9V213.1z"></path><path class="st1" d="M1185,281.4h-8.2c-1.5,0-2.3,0-3.3-1.7l-22.9-38.2h-3.3c-4.2,0-7.3-0.1-14.1-0.4v37.7c0.1,1.3-1,2.5-2.3,2.6 h-6.9c-1.3-0.1-2.4-1.2-2.3-2.6v-89.6c0-1.8,0.8-2.6,3.1-2.8c5.5-0.6,15.1-1,22.5-1c20.2,0,35.9,6.8,35.9,27.5v0.9 c0,14.3-8.4,22.8-20.1,25.9l23.3,38.9c0.2,0.3,0.4,0.7,0.4,1.1C1186.7,280.6,1186,281.4,1185,281.4 C1185,281.4,1185,281.4,1185,281.4z M1171.6,212.8c0-12.8-8.3-17-24.3-17c-4,0-11,0-14.1,0.4v35.1c5.6,0.1,11.1,0.3,14.1,0.3 c15.7,0,24.3-4,24.3-17.8V212.8z"></path><path class="st1" d="M1266.8,281.4h-7.6c-1.1-0.1-2-0.9-2.2-1.9l-8.3-29.4h-33.2l-8.2,29.4c-0.3,1.1-1.2,1.8-2.3,1.9h-7.6 c-1.1,0.1-2.1-0.8-2.2-1.9c0,0,0-0.1,0-0.1c0-0.3,0-0.6,0.1-0.9l23.7-83.4c2.2-7.8,8.2-9.7,13.1-9.7s10.8,1.8,12.9,9.6l23.7,83.5 c0.1,0.3,0.2,0.6,0.1,0.9c0,1.1-0.8,2-1.9,2.1C1267,281.4,1266.9,281.4,1266.8,281.4z M1234.7,197.7c-0.4-1.4-1.2-2.3-2.4-2.3 s-2.2,0.9-2.6,2.3l-11.7,42.1h28.3L1234.7,197.7z"></path><path class="st1" d="M822,434.9c-8.1,0.1-16.2-0.8-24-2.8c-1.3-0.4-2.5-1.1-2.5-2.5v-12.4c-0.2-1.2,0.6-2.2,1.8-2.4 c0.2,0,0.3,0,0.5,0h0.4c5.2,0.5,19.2,1.5,24.1,1.5c8.8,0,11.3-2.8,11.3-8.9c0-3.7-1.8-5.7-8.4-9.6l-17.5-10.4c-11.8-7-15-15-15-24.2 c0-14,7.9-24.8,32.5-24.8c9.3,0,22.1,1.5,26.9,2.8c1.1,0.2,1.9,1.1,1.9,2.2v12.8c0.1,1.1-0.6,2-1.7,2.2c-0.2,0-0.3,0-0.5,0h-0.2 c-3.6-0.3-18.3-1.4-26.9-1.4c-7.2,0-9.9,2.2-9.9,6.7c0,3.6,1.7,5.2,8.5,8.9l16.3,8.8c13.2,7.1,17.2,15.5,17.2,25.8 C856.7,420.6,847.8,434.9,822,434.9z"></path><path class="st1" d="M926,433.3c-8.2,1.2-16.4,1.8-24.6,1.6c-16.4,0-30.9-4.2-30.9-27.3v-42.2c0-23.1,14.6-27.2,31-27.2 c8.2-0.1,16.4,0.4,24.5,1.6c1.8,0.3,2.5,0.9,2.5,2.5v11.9c0,1.4-1.2,2.5-2.5,2.5h-25.7c-6,0-8.1,2-8.1,8.6V377H925 c1.4,0,2.5,1.1,2.5,2.5v12.1c0,1.4-1.1,2.5-2.5,2.5h-32.9v13.5c0,6.6,2.2,8.6,8.1,8.6H926c1.4,0,2.5,1.1,2.5,2.5v11.8 C928.6,432.2,927.8,433,926,433.3z"></path><path class="st1" d="M1007.4,358.2h-0.4c-6.1-0.2-15.6-1-26.4-1c-10.3,0-16.6,5-16.6,21.6v15.9c0,17.5,8,21.6,14.2,21.6 c3.6,0,6.7-0.1,9.8-0.4v-29.2c-0.1-1.3,1-2.5,2.3-2.5c0,0,0,0,0.1,0h16.3c1.4,0,2.5,1.1,2.5,2.5v42.6c0,1.8-0.6,2.5-2.5,2.9 c-9.4,1.9-18.9,2.8-28.5,2.7c-14.5,0-36.2-8.3-36.2-40.4v-15.7c0-32.4,20.2-40.5,38.6-40.5c8.9,0,17.8,1,26.5,2.9 c1.3,0.3,2.2,0.8,2.2,1.9v13.5C1009.3,357.9,1008.6,358.2,1007.4,358.2z"></path><path class="st1" d="M1062.7,434.9c-20.2,0-36.6-7.6-36.6-36.6v-56.5c0-1.3,1.1-2.4,2.5-2.4c0,0,0,0,0.1,0h16.6 c1.3-0.1,2.5,1,2.5,2.3c0,0,0,0,0,0.1v56.5c0,13,3.4,18.4,14.9,18.4c11.4,0,15-5.5,15-18.4v-56.5c0-1.3,1.1-2.4,2.5-2.4 c0,0,0,0,0.1,0h16.5c1.4-0.1,2.6,1,2.7,2.4v56.5C1099.4,427.3,1082.9,434.9,1062.7,434.9z"></path><path class="st1" d="M1187.8,433.8h-19.4c-1.4,0-1.9-1.3-2.5-2.5l-17-32.1l-1.4,0.1c-2.7,0-6.6-0.2-9-0.2v32.3 c0,1.4-1.1,2.5-2.5,2.5h-16.5c-1.4,0-2.5-1.1-2.5-2.5V346c0-4.3,1.8-5.5,5.7-6.1c8.5-1.1,17.2-1.7,25.8-1.6 c21.6,0,38.2,7.2,38.2,29.7v1.6c0,13.5-7.1,21.7-16.4,25.4l19.2,35.8c0.2,0.4,0.4,0.9,0.4,1.4 C1189.7,433.1,1189.2,433.8,1187.8,433.8z M1164.9,368c0-7.8-6-11.3-16.6-11.3c-1.8,0-8.4,0.2-9.9,0.4v24.4c1.4,0.1,7.6,0.3,9,0.3 c13.3,0,17.5-3.4,17.5-12.1L1164.9,368z"></path><path class="st1" d="M1274.7,433.8h-17.8c-1.3-0.1-2.3-1-2.5-2.3l-4.6-20.8h-26l-4.6,20.8c-0.2,1.3-1.3,2.2-2.5,2.3h-17.8 c-1.1,0.1-2.1-0.7-2.2-1.8c0-0.1,0-0.1,0-0.2c0.1-0.2,0.1-0.4,0.1-0.6l18.9-78.7c2.9-12.2,12.3-14.1,21.1-14.1s18,1.9,21,14.1 l18.9,78.7c0,0.2,0.1,0.4,0.1,0.6c0,1.1-0.9,2-2,2C1274.8,433.8,1274.7,433.8,1274.7,433.8z M1238.5,358.2c-0.2-1.3-0.5-1.9-1.7-1.9 s-1.5,0.6-1.8,1.9l-7.7,35.1h18.9L1238.5,358.2z"></path><path class="st1" d="M2061.1,282.3c-7.1,0-14.2-0.6-21.3-1.8c-2.2-0.4-2.4-0.9-2.4-2.3v-5.1c0-1.1,0.8-2,1.9-2.1c0.1,0,0.2,0,0.2,0 h0.4c5.9,0.5,15.2,0.8,21.1,0.8c15.4,0,19.5-6.1,19.5-15.1c0-6.4-3.7-10-15.4-17.2l-12.4-7.6c-11.8-7.2-17.7-13.7-17.7-23.9 c0-15.5,11.1-22.7,30.6-22.7c7.5,0,14.9,0.5,22.3,1.5c1.3,0.3,2.2,0.9,2.2,2.2v5.5c0,1.1-0.9,2-2,2c-0.1,0-0.1,0-0.2,0h-0.3 c-5.6-0.4-14.6-0.8-22-0.8c-13.2,0-18.8,2.8-18.8,12.2c0,6,4.2,9.6,14,15.5l11.8,7c14.9,8.8,20.1,15.9,20.1,26.1 C2092.8,268.9,2086.4,282.3,2061.1,282.3z"></path><path class="st1" d="M2172,281.4h-7.6c-1.1-0.1-2-0.9-2.2-1.9L2154,250h-33.2l-8.2,29.5c-0.3,1.1-1.2,1.8-2.3,1.9h-7.6 c-1.1,0.1-2.1-0.8-2.2-1.9c0,0,0-0.1,0-0.1c0-0.3,0-0.6,0.1-0.9l23.7-83.4c2.2-7.8,8.2-9.7,13.1-9.7s10.8,1.8,12.9,9.6l23.7,83.5 c0.1,0.3,0.2,0.6,0.1,0.9c0,1.1-0.8,2-1.9,2.1C2172.2,281.4,2172.1,281.4,2172,281.4z M2139.9,197.7c-0.4-1.4-1.2-2.3-2.4-2.3 c-1.3,0-2.2,0.9-2.6,2.3l-11.7,42.1h28.3L2139.9,197.7z"></path><path class="st1" d="M2235.1,196.2h-25v82.6c0.1,1.3-1,2.5-2.3,2.6h-7c-1.3-0.1-2.4-1.2-2.3-2.6v-82.6h-25c-1.4,0-2.6-0.6-2.6-2.1 v-5.6c0.1-1.3,1.2-2.4,2.6-2.3h61.6c1.2-0.1,2.3,0.8,2.4,2.1c0,0.1,0,0.2,0,0.2v5.6C2237.5,195.4,2236.5,196.2,2235.1,196.2z"></path><path class="st1" d="M2262.6,281.4h-7c-1.3-0.1-2.4-1.2-2.3-2.6v-90.2c-0.1-1.3,0.9-2.4,2.2-2.4c0,0,0.1,0,0.1,0h7 c1.3,0,2.3,1.1,2.3,2.4c0,0,0,0,0,0.1v90.2C2265,280.1,2263.9,281.3,2262.6,281.4z"></path><path class="st1" d="M2308.6,282.3c-7.1,0-14.2-0.6-21.3-1.8c-2.2-0.4-2.4-0.9-2.4-2.3v-5.1c0-1.1,0.8-2,1.9-2.1c0.1,0,0.2,0,0.2,0 h0.4c5.9,0.5,15.2,0.8,21.1,0.8c15.4,0,19.5-6.1,19.5-15.1c0-6.4-3.7-10-15.4-17.2l-12.4-7.6c-11.8-7.2-17.7-13.7-17.7-23.9 c0-15.5,11.1-22.7,30.6-22.7c7.5,0,14.9,0.5,22.3,1.5c1.3,0.3,2.2,0.9,2.2,2.2v5.5c0,1.1-0.9,2-2,2c-0.1,0-0.1,0-0.2,0h-0.3 c-5.6-0.4-14.6-0.8-22-0.8c-13.2,0-18.8,2.8-18.8,12.2c0,6,4.2,9.6,14,15.5l11.8,7c14.8,8.8,20.1,15.9,20.1,26.1 C2340.2,268.9,2333.8,282.3,2308.6,282.3z"></path><path class="st1" d="M2407.6,236.9h-39.3v41.9c0,1.4-1.1,2.6-2.6,2.6h-6.5c-1.4,0-2.6-1.2-2.6-2.6v-69.7c0-17,9.3-23.8,27.3-23.8 c7.6,0,19.6,0.2,25,0.8c0.8,0.2,1.3,1,1.3,1.8v6.4c0.1,0.8-0.5,1.4-1.2,1.5c-0.1,0-0.1,0-0.2,0H2384c-13.6,0-15.8,3.6-15.8,13.3V227 h39.3c1.4,0,2.6,1.1,2.6,2.6c0,0,0,0,0,0v4.9C2410.1,235.8,2409,236.9,2407.6,236.9z"></path><path class="st1" d="M2484.4,281.4h-7.6c-1.1-0.1-2-0.9-2.2-1.9l-8.3-29.4h-33.2l-8.2,29.4c-0.3,1.1-1.2,1.8-2.3,1.9h-7.6 c-1.1,0.1-2.1-0.8-2.2-1.9c0,0,0-0.1,0-0.1c0-0.3,0-0.6,0.1-0.9l23.7-83.4c2.2-7.8,8.2-9.7,13.1-9.7s10.8,1.8,12.9,9.6l23.7,83.5 c0.1,0.3,0.2,0.6,0.1,0.9c0,1.1-0.8,2-1.9,2.1C2484.6,281.4,2484.5,281.4,2484.4,281.4z M2452.2,197.7c-0.4-1.4-1.1-2.3-2.4-2.3 s-2.2,0.9-2.6,2.3l-11.7,42.1h28.3L2452.2,197.7z"></path><path class="st1" d="M2550.2,280.6c-5.4,1-10.4,1.7-21.3,1.7c-15.8,0-33.8-8.5-33.8-39.6v-17.8c0-31.4,18.1-39.6,33.8-39.6 c7.2,0.1,14.4,0.8,21.5,2c1.1,0.1,2.1,0.5,2.1,1.7v6.5c0,0.8-0.3,1.4-1.5,1.4h-0.4c-4.6-0.4-14.1-1.1-21.5-1.1 c-12.6,0-22.3,7.3-22.3,29.1v17.8c0,21.5,9.7,29.1,22.3,29.1c7.3,0,16.5-0.6,21.1-1h0.5c1.4,0,2.1,0.6,2.1,2v5.3 C2552.8,279.6,2551.6,280.3,2550.2,280.6z M2535.8,287.4l-14.5,16.1c-1.1,1.3-1.5,1.9-2.9,1.9h-6.9c-0.8,0-1.1-0.4-1.1-0.9 c0.1-0.5,0.2-0.9,0.5-1.3l12.4-15.9c1.2-1.4,1.8-1.9,3.2-1.9h8.4c0.9,0,1.4,0.3,1.4,0.9C2536.2,286.8,2536.1,287.1,2535.8,287.4z"></path><path class="st1" d="M2632.4,281.4h-7.6c-1.1-0.1-2-0.9-2.2-1.9l-8.3-29.4h-33.2l-8.2,29.4c-0.3,1.1-1.2,1.8-2.3,1.9h-7.6 c-1.1,0.1-2.1-0.8-2.2-2c0,0,0-0.1,0-0.1c0-0.3,0-0.6,0.1-0.9l23.7-83.4c2.2-7.8,8.2-9.7,13.1-9.7s10.8,1.8,12.9,9.6l23.7,83.5 c0.1,0.3,0.2,0.6,0.1,0.9c0,1.1-0.8,2-1.9,2.1C2632.6,281.4,2632.5,281.4,2632.4,281.4z M2608.9,180.4c-3,0-5.8-0.9-8.2-2.7 l-7.8-6.3c-3.1-2.4-3.7-2.8-5.2-2.8c-3.1,0-4,2-4,5.9v2.7c0,1.2-1,2.1-2.2,2.2h-4c-1.1-0.1-2-1-2-2.2v-2.7c0-9.2,4.6-14,12.2-14 c2.8,0.1,5.5,1.2,7.7,3.1l9.1,7.2c1.3,1,2.8,1.6,4.5,1.8c2.6,0,3.8-1.3,3.8-5.6v-2.9c0-1.2,1-2.1,2.2-2.2h4c1.2,0,2.1,1,2.1,2.2v2.9 C2620.9,175.7,2617.5,180.3,2608.9,180.4L2608.9,180.4z M2600.3,197.8c-0.4-1.4-1.1-2.3-2.4-2.3s-2.2,0.9-2.6,2.3l-11.7,42.1h28.4 L2600.3,197.8z"></path><path class="st1" d="M2677.5,282.3c-20.1,0-34.7-11.8-34.7-40.2v-16.6c0-28.4,14.6-40.2,34.7-40.2s34.6,11.8,34.6,40.2V242 C2712.1,270.5,2697.6,282.3,2677.5,282.3z M2700.3,225.6c0-21.5-8.7-29.7-22.8-29.7s-22.9,8.2-22.9,29.7v16.5 c0,21.5,8.8,29.7,22.9,29.7s22.8-8.2,22.8-29.7V225.6z"></path><path class="st1" d="M2100.5,358.2h-0.4c-6.1-0.2-15.6-1-26.4-1c-10.3,0-16.6,5-16.6,21.6v15.9c0,17.5,8,21.6,14.2,21.6 c3.6,0,6.7-0.1,9.8-0.4v-29.2c-0.1-1.3,1-2.5,2.3-2.5c0,0,0,0,0.1,0h16.3c1.4,0,2.5,1.1,2.5,2.5v42.6c0,1.8-0.6,2.5-2.5,2.9 c-9.4,1.9-18.9,2.8-28.4,2.7c-14.5,0-36.2-8.3-36.2-40.4v-15.7c0-32.4,20.2-40.5,38.6-40.5c8.9,0,17.8,1,26.6,2.9 c1.3,0.3,2.1,0.8,2.1,1.9v13.5C2102.4,357.9,2101.6,358.2,2100.5,358.2z"></path><path class="st1" d="M2191,433.8h-17.8c-1.3-0.1-2.3-1-2.5-2.3l-4.6-20.8h-26l-4.6,20.8c-0.2,1.3-1.3,2.2-2.5,2.3h-17.8 c-1.1,0.1-2.1-0.7-2.2-1.8c0-0.1,0-0.1,0-0.2c0.1-0.2,0.1-0.4,0.1-0.6l18.9-78.7c2.9-12.2,12.3-14.1,21.1-14.1s18,1.9,21,14.1 l18.9,78.7c0,0.2,0.1,0.4,0.1,0.6c0,1.1-0.9,2-2,2C2191.2,433.8,2191.1,433.8,2191,433.8z M2154.8,358.2c-0.2-1.3-0.5-1.9-1.6-1.9 c-1.2,0-1.5,0.6-1.8,1.9l-7.7,35.1h18.9L2154.8,358.2z"></path><path class="st1" d="M2275.5,433.8h-19.4c-1.4,0-1.9-1.3-2.5-2.5l-17-32.1l-1.4,0.1c-2.7,0-6.6-0.2-9-0.2v32.3 c0,1.4-1.1,2.5-2.5,2.5H2207c-1.4,0-2.5-1.1-2.5-2.5V346c0-4.3,1.8-5.5,5.7-6.1c8.6-1.1,17.2-1.6,25.8-1.6 c21.6,0,38.2,7.2,38.2,29.7v1.6c0,13.5-7.1,21.7-16.4,25.4l19.2,35.8c0.2,0.4,0.4,0.9,0.4,1.4 C2277.4,433.1,2276.9,433.8,2275.5,433.8z M2252.6,368c0-7.8-6-11.3-16.6-11.3c-1.8,0-8.4,0.2-9.9,0.4v24.4c1.4,0.1,7.6,0.3,9,0.3 c13.3,0,17.5-3.4,17.5-12.1L2252.6,368z"></path><path class="st1" d="M2362.4,433.8h-17.8c-1.3-0.1-2.3-1-2.5-2.3l-4.6-20.8h-26l-4.6,20.8c-0.2,1.3-1.3,2.2-2.5,2.3h-17.8 c-1.1,0.1-2.1-0.7-2.2-1.8c0-0.1,0-0.1,0-0.2c0.1-0.2,0.1-0.4,0.1-0.6l18.9-78.7c2.9-12.2,12.3-14.1,21.1-14.1s18,1.9,21,14.1 l18.9,78.7c0,0.2,0.1,0.4,0.1,0.6c0,1.1-0.9,2-2,2C2362.5,433.8,2362.4,433.8,2362.4,433.8z M2326.2,358.2c-0.3-1.3-0.5-1.9-1.7-1.9 c-1.1,0-1.5,0.6-1.8,1.9l-7.7,35.1h18.9L2326.2,358.2z"></path><path class="st1" d="M2445.7,433.8h-12.4c-2.7,0-4.6-0.5-6.6-3.9l-28.9-50c-0.5-0.8-0.8-1-1.1-1s-0.6,0.3-0.6,1v51.4 c0,1.4-1.1,2.5-2.5,2.5h-15c-1.4,0-2.5-1.1-2.5-2.5v-87c0-2.7,2.2-4.8,4.8-4.8c0,0,0,0,0,0h12.8c2.5,0,3.8,1.3,5.3,3.9l30.1,52.3 c0.5,0.8,0.6,1,1,1s0.6-0.2,0.6-1.1v-53.7c0-1.3,1.1-2.4,2.5-2.4c0,0,0,0,0.1,0h15c1.3-0.1,2.5,1,2.5,2.3c0,0,0,0,0,0.1v87.1 C2450.6,431.6,2448.4,433.8,2445.7,433.8z"></path><path class="st1" d="M2524.9,357.3h-20.6v73.9c0,1.4-1.1,2.5-2.5,2.5h-16.6c-1.4,0-2.5-1.1-2.5-2.5v-73.9h-20.7 c-1.3,0.1-2.5-1-2.5-2.3c0,0,0,0,0-0.1v-13.1c0-1.3,1.1-2.4,2.5-2.4c0,0,0,0,0.1,0h63c1.4-0.1,2.6,1,2.7,2.4v13.1 C2527.5,356.3,2526.3,357.4,2524.9,357.3z"></path><path class="st1" d="M2559,433.8h-17c-1.3,0-2.3-1.1-2.3-2.4c0,0,0-0.1,0-0.1v-89.4c-0.1-1.2,0.8-2.3,2-2.4c0.1,0,0.2,0,0.2,0h17 c1.3,0,2.4,1,2.4,2.2c0,0.1,0,0.1,0,0.2v89.4C2561.5,432.6,2560.4,433.7,2559,433.8C2559,433.8,2559,433.8,2559,433.8z"></path><path class="st1" d="M2609.9,434.9c-9.1,0-18.1-0.6-27.1-1.9c-2.4-0.4-3.7-1.5-3.7-4.4v-83.9c0-2.9,1.3-4.1,3.7-4.4 c9-1.3,18-1.9,27.1-1.9c25.3,0,40.5,13.3,40.5,40.1v16.4C2650.4,421.6,2635.1,434.9,2609.9,434.9z M2628.7,378.4 c0-17.1-7.4-21.7-18.8-21.7c-3.2,0-7.2,0.1-9,0.2v59.3c1.8,0.1,5.9,0.2,9,0.2c11.4,0,18.8-4.6,18.8-21.7V378.4z"></path><path class="st1" d="M2735.2,433.8h-17.8c-1.3-0.1-2.3-1-2.5-2.3l-4.6-20.8h-26l-4.6,20.8c-0.2,1.3-1.3,2.2-2.5,2.3h-17.8 c-1.1,0.1-2.1-0.7-2.2-1.8c0-0.1,0-0.1,0-0.2c0.1-0.2,0.1-0.4,0.1-0.6l18.9-78.7c2.9-12.2,12.3-14.1,21.1-14.1s18,1.9,21,14.1 l18.9,78.7c0,0.2,0.1,0.4,0.1,0.6c0,1.1-0.9,2-2,2C2735.4,433.8,2735.3,433.8,2735.2,433.8z M2699,358.2c-0.3-1.3-0.5-1.9-1.7-1.9 s-1.5,0.6-1.8,1.9l-7.7,35.1h18.9L2699,358.2z"></path><path class="st1" d="M3570.2,243.5c-4.1,0-9.5-0.4-12.8-0.6v36c0.1,1.3-1,2.5-2.3,2.6h-6.9c-1.3-0.1-2.4-1.2-2.3-2.6v-89.3 c0-1.8,1.2-2.9,3.1-3.2c7.1-0.7,14.2-1,21.3-1c20.7,0,35.9,7.2,35.9,27.8v1.7C3606.1,236.2,3591,243.5,3570.2,243.5z M3594.4,213.1 c0-12.9-7.7-17.9-24.2-17.9c-4,0-9.7,0.2-12.8,0.5v37.5c2.9,0.1,9.5,0.5,12.8,0.5c17.5,0,24.2-5.6,24.2-18.9V213.1z"></path><path class="st1" d="M3685.2,281.4h-8.2c-1.5,0-2.3,0-3.3-1.7l-22.9-38.2h-3.3c-4.2,0-7.3-0.1-14.1-0.4v37.7c0.1,1.3-1,2.5-2.3,2.6 h-6.9c-1.3-0.1-2.4-1.2-2.3-2.6v-89.6c0-1.8,0.8-2.6,3.1-2.8c5.5-0.6,15.1-1,22.5-1c20.2,0,35.9,6.8,35.9,27.5v0.9 c0,14.3-8.4,22.8-20.1,25.9l23.3,38.9c0.2,0.3,0.4,0.7,0.4,1.1C3686.9,280.6,3686.2,281.4,3685.2,281.4 C3685.3,281.4,3685.2,281.4,3685.2,281.4z M3671.8,212.8c0-12.8-8.3-17-24.3-17c-4,0-11,0-14.1,0.4v35.1c5.6,0.1,11.1,0.3,14.1,0.3 c15.8,0,24.3-4,24.3-17.8V212.8z"></path><path class="st1" d="M3712.5,281.4h-7c-1.3-0.1-2.4-1.2-2.3-2.6v-90.2c-0.1-1.3,0.9-2.4,2.2-2.4c0,0,0.1,0,0.1,0h7 c1.3,0,2.3,1.1,2.3,2.4c0,0,0,0,0,0.1v90.2C3714.9,280.1,3713.9,281.3,3712.5,281.4z"></path><path class="st1" d="M3804,189.2l-23.6,83.4c-2.3,8.1-8.2,9.7-13.1,9.7s-10.8-1.7-13.1-9.7l-23.7-83.4c-0.1-0.2-0.1-0.5-0.1-0.8 c0-1.2,1-2.2,2.2-2.2c0,0,0.1,0,0.1,0h7.4c1.1,0.1,2,0.9,2.3,1.9l22.3,81.6c0.5,1.8,1.1,2.7,2.6,2.7s1.9-0.9,2.4-2.7l22.4-81.6 c0.2-1,1.1-1.8,2.2-1.9h7.6c1.2-0.1,2.1,0.8,2.2,2c0,0.1,0,0.1,0,0.2C3804.1,188.7,3804.1,188.9,3804,189.2z"></path><path class="st1" d="M3874.6,281.4h-7.6c-1.1,0-2-0.9-2.2-1.9l-8.3-29.4h-33.2l-8.2,29.4c-0.3,1.1-1.2,1.8-2.3,1.9h-7.6 c-1.1,0.1-2.1-0.8-2.2-1.9c0,0,0-0.1,0-0.1c0-0.3,0-0.6,0.1-0.9L3827,195c2.2-7.8,8.2-9.7,13.1-9.7s10.8,1.8,12.9,9.6l23.7,83.5 c0.1,0.3,0.2,0.6,0.1,0.9c0,1.1-0.8,2-1.9,2.1C3874.8,281.4,3874.7,281.4,3874.6,281.4z M3842.5,197.7c-0.4-1.4-1.2-2.3-2.4-2.3 s-2.2,0.9-2.6,2.3l-11.6,42.1h28.3L3842.5,197.7z"></path><path class="st1" d="M3940.5,280.6c-5.4,1-10.4,1.7-21.3,1.7c-15.8,0-33.8-8.5-33.8-39.6v-17.8c0-31.4,18.1-39.6,33.8-39.6 c7.2,0.1,14.4,0.8,21.5,2c1.1,0.1,2.1,0.5,2.1,1.7v6.5c0,0.8-0.3,1.4-1.5,1.4h-0.4c-4.6-0.4-14.1-1.1-21.5-1.1 c-12.6,0-22.3,7.3-22.3,29.1v17.8c0,21.5,9.7,29.1,22.3,29.1c7.3,0,16.5-0.6,21.1-1h0.5c1.4,0,2.1,0.6,2.1,2v5.3 C3943,279.6,3941.9,280.3,3940.5,280.6z"></path><path class="st1" d="M3968.1,281.4h-7c-1.3-0.1-2.4-1.2-2.3-2.6v-90.2c-0.1-1.3,0.9-2.4,2.2-2.4c0,0,0.1,0,0.1,0h7 c1.3,0,2.3,1.1,2.3,2.3c0,0,0,0.1,0,0.1v90.2C3970.5,280.1,3969.5,281.3,3968.1,281.4z"></path><path class="st1" d="M4017.7,282.3c-9.7,0-19.6-0.6-23.3-1.3c-1.6-0.1-2.8-1.5-2.7-3.1c0,0,0-0.1,0-0.1v-88c-0.1-1.6,1.1-3,2.7-3.2 c3.7-0.6,13.6-1.3,23.3-1.3c23.7,0,38.8,12.2,38.8,39.8v17.3C4056.5,269.8,4041.4,282.3,4017.7,282.3z M4044.8,225.2 c0-23.2-11.8-29.8-27.1-29.8c-6,0-10,0.1-14.2,0.4v76.3c4.1,0.2,8.2,0.2,14.2,0.2c15.4,0,27.1-6.8,27.1-29.8V225.2z"></path><path class="st1" d="M4136,281.4h-7.6c-1.1-0.1-2-0.9-2.2-1.9L4118,250h-33.2l-8.2,29.5c-0.3,1.1-1.2,1.8-2.3,1.9h-7.6 c-1.1,0.1-2.1-0.8-2.2-1.9c0,0,0-0.1,0-0.1c0-0.3,0-0.6,0.1-0.9l23.7-83.4c2.2-7.8,8.2-9.7,13.1-9.7s10.8,1.8,12.9,9.6l23.7,83.5 c0.1,0.3,0.2,0.6,0.1,0.9c0,1.1-0.8,2-1.9,2.1C4136.2,281.4,4136.1,281.4,4136,281.4z M4103.9,197.7c-0.4-1.4-1.1-2.3-2.4-2.3 c-1.3,0-2.2,0.9-2.6,2.3l-11.7,42.1h28.3L4103.9,197.7z"></path><path class="st1" d="M4177.9,282.3c-9.7,0-19.6-0.6-23.3-1.3c-1.6-0.1-2.8-1.5-2.7-3.1c0,0,0-0.1,0-0.1v-88c-0.1-1.6,1.1-3,2.7-3.2 c3.7-0.6,13.6-1.3,23.3-1.3c23.7,0,38.8,12.2,38.8,39.8v17.3C4216.7,269.8,4201.6,282.3,4177.9,282.3z M4205.1,225.2 c0-23.2-11.8-29.8-27.1-29.8c-6,0-10,0.1-14.2,0.4v76.3c4.1,0.2,8.2,0.2,14.2,0.2c15.4,0,27.1-6.8,27.1-29.8V225.2z"></path><path class="st1" d="M4286.2,281.6c-4.9,0.5-17.4,0.6-25,0.6c-17.9,0-27.3-6.8-27.3-23.8v-49.3c0-17,9.4-23.8,27.3-23.8 c7.6,0,19.6,0.2,25,0.8c0.8,0.2,1.3,1,1.3,1.8v6.4c0.1,0.8-0.5,1.4-1.2,1.5c-0.1,0-0.1,0-0.2,0h-24.7c-13.6,0-15.8,3.6-15.8,13.3 V227h39.3c1.4,0,2.6,1.1,2.6,2.6c0,0,0,0,0,0v4.9c0,1.4-1.1,2.6-2.6,2.6h-39.3v21.5c0,9.7,2.2,13.3,15.8,13.3h24.7 c0.8,0,1.4,0.6,1.4,1.3c0,0.1,0,0.1,0,0.2v6.5C4287.6,280.7,4287,281.4,4286.2,281.6z"></path><path class="st1" d="M3576.5,400.7c-3,0-7.1-0.3-10.3-0.4v30.9c0,1.4-1.1,2.5-2.5,2.5h-16.4c-1.3,0-2.5-1-2.5-2.3c0,0,0,0,0-0.1V346 c0-4.3,1.8-5.5,5.7-6.1c8.5-1.1,17.2-1.7,25.8-1.6c19.2,0,38.1,6.7,38.1,30.6v1.1C3614.4,393.8,3595.5,400.7,3576.5,400.7z  M3592.8,368.9c0-9-5.6-12.6-16.3-12.6c-1.8,0-8.8,0.2-10.3,0.4v25.9c1.4,0.1,8.9,0.3,10.3,0.3c11.3,0,16.3-4.2,16.3-12.8V368.9z"></path><path class="st1" d="M3698.5,433.8H3679c-1.4,0-1.9-1.3-2.5-2.5l-17-32.1l-1.4,0.1c-2.7,0-6.6-0.2-9-0.2v32.3c0,1.4-1.1,2.5-2.5,2.5 H3630c-1.4,0-2.5-1.1-2.5-2.5V346c0-4.3,1.8-5.5,5.7-6.1c8.6-1.1,17.2-1.6,25.8-1.6c21.6,0,38.2,7.2,38.2,29.7v1.6 c0,13.5-7.1,21.7-16.4,25.4l19.2,35.8c0.2,0.4,0.4,0.9,0.4,1.4C3700.4,433.1,3699.9,433.8,3698.5,433.8z M3675.6,368 c0-7.8-6-11.3-16.6-11.3c-1.8,0-8.4,0.2-9.9,0.4v24.4c1.4,0.1,7.6,0.3,9,0.3c13.3,0,17.5-3.4,17.5-12.1L3675.6,368z"></path><path class="st1" d="M3746.6,434.9c-21,0-37.6-11.3-37.6-40.8V379c0-29.5,16.6-40.8,37.6-40.8s37.6,11.3,37.6,40.8v15.1 C3784.2,423.6,3767.6,434.9,3746.6,434.9z M3762.3,379c0-15.2-5.1-21.7-15.7-21.7s-15.6,6.5-15.6,21.7v15.1c0,15.2,5,21.7,15.6,21.7 s15.7-6.5,15.7-21.7L3762.3,379z"></path><path class="st1" d="M3855.8,357.3h-20.6v73.9c0,1.4-1.1,2.5-2.5,2.5h-16.6c-1.4,0-2.5-1.1-2.5-2.5v-73.9h-20.7 c-1.3,0.1-2.5-1-2.5-2.3c0,0,0,0,0-0.1v-13.1c0-1.3,1.1-2.4,2.5-2.4c0,0,0,0,0.1,0h63c1.4-0.1,2.6,1,2.7,2.4v13.1 C3858.4,356.3,3857.2,357.4,3855.8,357.3z"></path><path class="st1" d="M3922.7,433.3c-8.2,1.2-16.4,1.8-24.6,1.6c-16.4,0-30.9-4.2-30.9-27.3v-42.2c0-23.1,14.6-27.2,31-27.2 c8.2-0.1,16.4,0.4,24.5,1.6c1.8,0.3,2.5,0.9,2.5,2.5v11.8c0,1.4-1.1,2.5-2.5,2.5l0,0H3897c-6,0-8.1,2-8.1,8.6V377h32.9 c1.4,0,2.5,1.1,2.5,2.5v12.1c0,1.4-1.1,2.5-2.5,2.5h-32.9v13.5c0,6.6,2.2,8.6,8.1,8.6h25.8c1.4,0,2.5,1.1,2.5,2.5c0,0,0,0,0,0v11.8 C3925.3,432.2,3924.5,433,3922.7,433.3z"></path><path class="st1" d="M4004.1,358.2h-0.4c-6.1-0.2-15.6-1-26.4-1c-10.3,0-16.6,5-16.6,21.6v15.9c0,17.5,8,21.6,14.2,21.6 c3.6,0,6.7-0.1,9.8-0.4v-29.2c-0.1-1.3,1-2.5,2.3-2.5c0,0,0,0,0.1,0h16.3c1.4,0,2.5,1.1,2.5,2.5v42.6c0,1.8-0.6,2.5-2.5,2.9 c-9.4,1.9-18.9,2.8-28.4,2.7c-14.5,0-36.2-8.3-36.2-40.4v-15.7c0-32.4,20.2-40.5,38.6-40.5c8.9,0,17.8,1,26.6,2.9 c1.3,0.3,2.1,0.8,2.1,1.9v13.5C4006.1,357.9,4005.3,358.2,4004.1,358.2z"></path><path class="st1" d="M4042.5,433.8h-17c-1.3,0-2.3-1.1-2.3-2.4c0,0,0-0.1,0-0.1v-89.4c-0.1-1.2,0.8-2.3,2-2.4c0.1,0,0.2,0,0.2,0h17 c1.3,0,2.4,1,2.4,2.2c0,0.1,0,0.1,0,0.2v89.4C4045,432.6,4043.9,433.7,4042.5,433.8C4042.5,433.8,4042.5,433.8,4042.5,433.8z"></path><path class="st1" d="M4093.4,434.9c-9,0-18.1-0.6-27-1.9c-2.4-0.4-3.7-1.5-3.7-4.4v-83.9c0-2.9,1.3-4.1,3.7-4.4 c8.9-1.3,18-1.9,27-1.9c25.3,0,40.5,13.3,40.5,40.1v16.4C4133.9,421.6,4118.7,434.9,4093.4,434.9z M4112.2,378.4 c0-17.1-7.4-21.7-18.8-21.7c-3.2,0-7.2,0.1-9,0.2v59.3c1.8,0.1,5.8,0.2,9,0.2c11.4,0,18.8-4.6,18.8-21.7V378.4z"></path><path class="st1" d="M4218.8,433.8H4201c-1.3-0.1-2.3-1-2.5-2.3l-4.6-20.8h-26l-4.6,20.8c-0.2,1.3-1.3,2.2-2.5,2.3H4143 c-1.1,0.1-2.1-0.7-2.2-1.8c0-0.1,0-0.1,0-0.2c0.1-0.2,0.1-0.4,0.1-0.6l18.9-78.7c2.9-12.2,12.3-14.1,21.1-14.1c8.8,0,18,1.9,21,14.1 l18.9,78.7c0,0.2,0.1,0.4,0.1,0.6c0,1.1-0.9,2-2,2C4218.9,433.8,4218.9,433.8,4218.8,433.8z M4182.6,358.2c-0.2-1.3-0.5-1.9-1.6-1.9 c-1.1,0-1.5,0.6-1.8,1.9l-7.7,35.1h18.9L4182.6,358.2z"></path></svg>