<svg xmlns="http://www.w3.org/2000/svg" width="70" height="48" viewBox="0 0 70 48" fill="none"><path d="M27.9343 5.4414C26.7964 3.47124 25.291 2.07336 23.4146 1.24464C21.5347 0.415923 19.266 0 16.598 0C14.1774 0 11.9547 0.415923 9.92983 1.24464C7.90499 2.07336 6.15225 3.24295 4.66808 4.7534C3.18744 6.26073 2.03897 8.07453 1.22268 10.1948C0.409915 12.3151 0 14.6449 0 17.1811C0 19.7172 0.466455 22.144 1.40643 24.1955C2.34287 26.2532 3.60442 27.9888 5.18401 29.4086C6.76359 30.8315 8.59407 31.901 10.6684 32.6202C12.7427 33.3426 14.9159 33.7023 17.1881 33.7023C21.9799 33.7023 25.5384 31.9979 27.8601 28.5861H28.1569C28.0085 29.7651 27.9343 31.2974 27.9343 33.1769V33.8993C27.9343 36.0383 27.2558 37.702 25.8953 38.881C24.5348 40.0631 22.4746 40.6541 19.7077 40.6541C17.4355 40.6541 15.7181 40.3258 14.559 39.669C13.3964 39.0154 12.619 38.1617 12.2268 37.1141H0.890504C1.48064 40.5666 3.43127 43.2466 6.74239 45.148C10.0535 47.0493 14.4248 48 19.8597 48C22.775 48 25.4394 47.6935 27.8636 47.0806C30.2842 46.4708 32.3585 45.5076 34.0901 44.1973C35.6696 42.9307 36.9171 41.3671 37.8323 39.5095C38.7475 37.6488 39.2034 35.4097 39.2034 32.7891V0.981953H28.0862V5.4414H27.9343ZM27.8247 20.4584C27.5032 21.5498 26.9837 22.513 26.2699 23.3417C25.5525 24.1704 24.662 24.8178 23.6019 25.2775C22.5418 25.7372 21.2696 25.9655 19.789 25.9655C17.1705 25.9655 15.1174 25.1461 13.6367 23.5043C12.1526 21.8657 11.414 19.6703 11.414 16.9152C11.414 14.1601 12.1526 11.896 13.6367 10.2573C15.1174 8.61867 17.1422 7.79621 19.7112 7.79621C22.5771 7.79621 24.7256 8.65933 26.1568 10.3887C27.588 12.1181 28.3053 14.2696 28.3053 16.8496C28.3053 18.1599 28.1463 19.3639 27.8212 20.4584H27.8247Z" fill="#1D1D1B"></path><path d="M67.5546 0.828718C65.081 0.828718 62.9608 1.35409 61.1798 2.40172C59.4023 3.44935 57.8722 5.2006 56.5859 7.64923H56.3633V1.41977H45.1754V36.3073H56.8085V20.1113C56.8085 16.7026 57.7626 14.132 59.6638 12.4058C61.5649 10.6795 64.0951 9.8383 67.2578 9.88208C68.0458 9.88208 68.8621 9.94462 69.7032 10.0791H70V1.09141C69.5547 0.916281 68.7384 0.828718 67.5546 0.828718Z" fill="#1D1D1B"></path><path d="M67.5087 31.9604C66.1305 31.9604 65.0139 32.9486 65.0139 34.1651C65.0139 35.3816 66.1305 36.3698 67.5087 36.3698C68.8869 36.3698 70 35.3816 70 34.1651C70 32.9486 68.8833 31.9604 67.5087 31.9604Z" fill="#1D1D1B"></path></svg>